<svg id="Layer_1" data-name="Layer 1" xmlns="http://www.w3.org/2000/svg" width="121.71" height="140.57" viewBox="0 0 121.71 140.57"><title>composer</title><path d="M6.86,120.28l50.76,6.92c1.35,0.18,2.63.35,3.14-1.48,1.18-4.24,2.47-8.44,3.77-12.88L9.22,98.33Zm10.29-14.13c3.74-.18,4,2.65,4.78,5-0.32,3-1.22,5.69-4.52,5.72s-4.66-2.26-4.64-5.29C12.79,108.71,13.59,106.32,17.14,106.15Z" transform="translate(-1.15 -0.72)" fill="none"/><path d="M50.56,131.45c1.84,0.76,1.86,2.68,2.18,4.26q0.57,2.78,1.12,5.57h0q-0.55-2.79-1.12-5.57C52.43,134.13,52.4,132.21,50.56,131.45Z" transform="translate(-1.15 -0.72)" fill="none"/><path d="M20.28,137.75c-1.83-3.78-1.88-6.7-.13-10.1q0.94,0,1.88,0-0.94,0-1.88,0c-0.65-1.65-2.34-2.06-2.79-.62-0.89,2.89-2.87,6.19-.84,9.05a12,12,0,0,1,2.06,5.19h2.71A11.44,11.44,0,0,0,20.28,137.75Z" transform="translate(-1.15 -0.72)" fill="none"/><path d="M117.5,4.44L70.63,33.62c-0.93-2.46-1.53-4.5-2.45-6.39-2.46-5-1.75-8.88,3.29-12.09,2.89-1.84,5.27-4.6,7.56-7.23C80.54,6.2,82,3.84,80,1.63s-3.73,0-5.31.81A143.51,143.51,0,0,1,47,13.55c-1.91.56-3.36,0.85-5-.7C38.73,9.63,36.16,11,33.9,14.32c-4.47,6.51-9,13-13.81,19.86-3.61-6.29-6.88-12.26-10.43-18.06-1.43-2.34-3.24-5.72-6.39-4.48-3,1.17-2.1,4.65-1.63,7.44,2.4,14.33,7,28.06,11.5,41.81l0.19,0.6,0.05,0.18,0.12,0.41,0.05,0.21q0,0.19.09,0.37l0,0.21c0,0.13,0,.25.06,0.38s0,0.12,0,.18a5.22,5.22,0,0,1,0,.54,4.11,4.11,0,0,1,0,.52c0,0.05,0,.11,0,0.16a3.45,3.45,0,0,1-.07.35l-0.06.18a3.3,3.3,0,0,1-.12.32l0,0.11a4.9,4.9,0,0,0,.86,5.84c6.25,5.86,9.36,13.56,6.28,21.9-0.2.54-.42,1.08-0.66,1.62l-0.13.27c-0.26.58-.55,1.16-0.87,1.75L5.34,93.72l-0.79,9.19-0.28,3.29L2.75,123.86l10,1.73c-2.41,5.67.14,10.83,0.92,15.7h5a12,12,0,0,0-2.06-5.19c-2-2.86-.05-6.16.84-9.05,0.44-1.44,2.13-1,2.79.62q0.94,0,1.88,0c9.36,0,18.46,2.09,27.63,3.58l0.48,0.1,0.42,0.14c1.84,0.76,1.86,2.68,2.19,4.26q0.57,2.78,1.12,5.57H58.8l-0.56-3.84L58.18,137,58,135.48l-0.44-3c5.37-.29,5.58-0.24,6.09-2.29,1.69-6.73,3.23-13.5,4.9-20.56l-18.14-4.74C53,94.38,54.26,83.71,66,79.09c3-1.19,4.51-4.27,5.92-7.16C77.7,60.13,83.25,48.2,93.36,39.18c6-5.33,5.32-9.26-2.24-13.21L122.85,5.43c-1.45-4.1-3.45-2.18-5.36-1h0Zm-43.14.35c1.53,1.76.93,3.13-.24,4.13q-7.91,6.84-16,13.52c-6.22,5.17-8.68.29-11.65-4.73A141.47,141.47,0,0,0,74.36,4.79ZM63.57,38.54l-8.9-10.29,8.71-6.19C63.34,28,70.63,32.43,63.57,38.54ZM17.81,63.64C13,48.34,7.2,33.79,5.6,18c8.29,9,11.85,20.77,18.93,30.67a3.68,3.68,0,0,0,.86-1.22c-6.67-13.9,6.85-20.55,11.09-30.5,0.69-1.61,3.22-1,4.25.53,5.08,7.74,12.13,13.65,18.44,20.24a5.05,5.05,0,0,1,.69,1.74c-3.72,2.76-3.72,2.76-20.6-8.62-0.94,3.2-4.16,6-1.23,9.51,2.56-.17,1.34-2.73,3.06-3.43L52,44.38Zm46.72,49.2c-1.31,4.43-2.59,8.64-3.77,12.88-0.51,1.83-1.79,1.67-3.14,1.48L6.86,120.28l2.36-22Zm27-82.3c1.73,2.33.68,4.58-1.11,6.2C83,43.47,77.89,51.88,73,60.35c-2.67,4.59-4.17,10.33-9,12.93C52.51,79.5,50.63,91,47,101.72c-0.21.62-.38,1.25-0.71,2.32L22.15,97.87c7.33-10.08,4.88-19.2-2.34-28.23,4.89-3,9.29-5.58,13.5-8.41C50.64,49.6,69.6,40.86,87.54,30.31c1.53-.9,2.9-1.2,4,0.24h0Z" transform="translate(-1.15 -0.72)" fill="#251910"/><path d="M50.56,131.45l-0.42-.14-0.48-.1c-9.18-1.49-18.28-3.61-27.63-3.58q-0.94,0-1.88,0c-1.75,3.4-1.7,6.31.13,10.1a11.44,11.44,0,0,1,1,3.53H53.87q-0.55-2.79-1.12-5.57C52.43,134.13,52.4,132.21,50.56,131.45Z" transform="translate(-1.15 -0.72)" fill="#51402b"/><path d="M50.14,131.31l-0.48-.1c-9.18-1.49-18.28-3.61-27.63-3.58,9.36,0,18.46,2.09,27.63,3.58Z" transform="translate(-1.15 -0.72)" fill="#51402b"/><path d="M87.54,30.31C69.6,40.86,50.64,49.6,33.32,61.22c-4.21,2.83-8.61,5.38-13.5,8.41,7.21,9,9.67,18.15,2.34,28.23L46.3,104c0.33-1.07.5-1.7,0.71-2.32C50.63,91,52.51,79.5,64,73.28c4.8-2.6,6.3-8.33,9-12.93,4.93-8.48,10-16.88,17.43-23.6,1.79-1.62,2.84-3.87,1.11-6.2-1.07-1.44-2.44-1.13-4-.24h0Z" transform="translate(-1.15 -0.72)" fill="#eadbc0"/><path d="M41.09,36.91c-1.72.7-.5,3.26-3.06,3.43-2.93-3.55.29-6.31,1.23-9.51,16.88,11.39,16.88,11.39,20.6,8.62a5.05,5.05,0,0,0-.69-1.74c-6.31-6.6-13.37-12.5-18.44-20.24-1-1.57-3.57-2.13-4.25-.53-4.24,9.94-17.76,16.6-11.09,30.5a3.68,3.68,0,0,1-.86,1.22C17.45,38.75,13.89,27,5.6,18,7.2,33.79,13,48.34,17.81,63.64L52,44.38Z" transform="translate(-1.15 -0.72)" fill="#eadbc0"/><path d="M58.17,22.45q8-6.69,16-13.52c1.17-1,1.76-2.38.24-4.13A141.47,141.47,0,0,1,46.52,17.72C49.49,22.74,51.95,27.62,58.17,22.45Z" transform="translate(-1.15 -0.72)" fill="#eadbc0"/><path d="M63.57,38.54c7.06-6.1-.23-10.58-0.19-16.48l-8.71,6.19Z" transform="translate(-1.15 -0.72)" fill="#eadbc0"/><path d="M57.61,127.2c1.35,0.18,2.63.35,3.14-1.48,1.18-4.24,2.47-8.44,3.77-12.88L9.22,98.33l-2.36,22ZM17.14,106.15c3.74-.18,4,2.65,4.78,5-0.32,3-1.22,5.69-4.52,5.72s-4.66-2.26-4.64-5.29C12.79,108.71,13.59,106.32,17.14,106.15Z" transform="translate(-1.15 -0.72)" fill="#fff"/><path d="M17.41,116.84c3.29,0,4.2-2.67,4.52-5.72-0.75-2.33-1-5.16-4.78-5-3.55.17-4.36,2.56-4.38,5.41C12.75,114.58,14.23,116.87,17.41,116.84Z" transform="translate(-1.15 -0.72)" fill="#251910"/><path d="M20.15,127.66c-0.65-1.65-2.34-2.06-2.79-.62-0.89,2.89-2.87,6.19-.84,9.05a12,12,0,0,1,2.06,5.19h2.71a11.44,11.44,0,0,0-1-3.53c-1.83-3.78-1.88-6.7-.13-10.1" transform="translate(-1.15 -0.72)" fill="#fff"/></svg>