<svg id="Layer_1" data-name="Layer 1" xmlns="http://www.w3.org/2000/svg" width="46.3" height="62.4" viewBox="0 0 46.3 62.4"><title>git</title><path d="M14.2,6.9h4.3v4.3H14.2V6.9Zm0,9h4.3v4.3H14.2V15.9Zm0,9h4.3v4.3H14.2V24.9Zm0,9h4.3v4.3H14.2V33.9ZM43.2,0H3.1A3.12,3.12,0,0,0,0,3.1V52.8a3.12,3.12,0,0,0,3.1,3.1h8.2v6.5l4.8-4,4.8,4V55.9H43.2a3.12,3.12,0,0,0,3.1-3.1V3.1A3.12,3.12,0,0,0,43.2,0Zm0.1,52.8c0,0.1-.1.1-0.2,0.1H20.9V48.5H11.2v4.4H3a0.35,0.35,0,0,1-.2-0.1V46.5H43.2v6.3h0.1Zm0-9.4H10.9V3H43.1a0.35,0.35,0,0,1,.2.1V43.4Z"/></svg>