<svg id="Layer_1" data-name="Layer 1" xmlns="http://www.w3.org/2000/svg" width="2367.31" height="1430.06" viewBox="0 0 2367.31 1430.06"><title>illustration</title><path d="M444.06,1255.81a98.11,98.11,0,0,1,78.4-86.45c-0.15-3.62-.25-7.28-0.25-11-22.81-46-79-97.29-169-91.31a234.55,234.55,0,0,1,77.68,174.63c0,4.75-.16,9.46-0.44,14.15h13.59Z" fill="#d9efee"/><path d="M543.26,1162.06a141.07,141.07,0,0,1,40.13,93.74h59.32l0.21-2.63C637.2,1213.73,599.85,1169.93,543.26,1162.06Z" fill="#d9efee"/><path d="M2097.44,1393.81h56.24c0.92-12.93,7-34.51,33.24-55.62-0.54.13-1.1,0.24-1.63,0.39-24.47-56.39-96.61-113.94-190.88-102.89C2055.51,1236.44,2098.57,1321.61,2097.44,1393.81Z" fill="#d9efee"/><path d="M2277.89,1393.81l0.35-1.17c-8.77-28.83-32.25-50.68-61.08-55.62,12.33,15.42,13.32,39.11,14.7,56.79h46Z" fill="#d9efee"/><path d="M227.1,1004.81c12.25-38,42.41-47.25,61.26-45.37s34.86,22.57,40.05,33c16.5-8.44,13.7,3.36,26.41,15.37,22.13-1.18,78.68.71,78.68,0.71l19.61-9.39,427.12-20.77,54.93,5.81s-8.45-47.78,78.57-58.84c38-77,63.62-68.73,104.54-68.17s87.77,24.92,102,84.26c0-57.54-2.58-261.6-2.58-261.6h248.31l304.72,0.34,1.08,149.24,147-.23V963.2l-149.08.07,1.94,49,147,0.81,0.07,59.51,38.47-1.45s4.22-31.28,37.54-28.11c23.58-36.84,68.46-41.56,95.62-14.4,21.26,2.36,33.25,17.69,38.18,42.51,26-.88,109.68.92,148.95,1.86-143.15-448-562.82-772.39-1058.27-772.39-470,0-871.78,292.19-1034,704.19H227.1Z" fill="#d9efee"/><path d="M1272.11,1426.81H1352c11.28-37.21,30.15-69.37,86-91-0.87.22-1.77,0.45-2.64,0.69-37-85.21-155.5-211.94-337.93-170.71,107.92,2.65,179.44,108.06,179.44,215.56A214.83,214.83,0,0,1,1272.11,1426.81Z" fill="#d9efee"/><path d="M1584.27,1426.81l1-3.23c-14.11-46.37-62.36-83.77-108.76-91.87a141.25,141.25,0,0,1,38.76,95.1h69Z" fill="#d9efee"/><polygon points="1001.19 144.91 1096.7 172.84 1418.36 172.84 1418.36 144.91 1001.19 144.91" fill="#baeaff"/><polygon points="1001.19 250.28 1096.7 278.21 1418.36 278.21 1418.36 250.28 1001.19 250.28" fill="#baeaff"/><polygon points="1001.19 356.49 1096.7 384.42 1418.36 384.42 1418.36 356.49 1001.19 356.49" fill="#baeaff"/><rect x="532.64" y="624.79" width="290.61" height="502.23" fill="#fff"/><path d="M823.25,1133.39H532.64a6.37,6.37,0,0,1-6.37-6.37V624.79a6.37,6.37,0,0,1,6.37-6.37H823.25a6.37,6.37,0,0,1,6.37,6.37V1127A6.37,6.37,0,0,1,823.25,1133.39ZM539,1120.65H816.88V631.16H539v489.49Z" fill="#3fb0ac"/><rect x="570.84" y="624.79" width="214.21" height="502.23" fill="#d9efee"/><path d="M1468,850.85V6.37H959.94V935.22C994.08,1045,1416.94,956.76,1468,850.85Z" fill="#fff"/><path d="M959.94,941.59a6.37,6.37,0,0,1-6.37-6.37V6.37A6.37,6.37,0,0,1,959.94,0H1468a6.37,6.37,0,0,1,6.37,6.37V850.85a6.37,6.37,0,1,1-12.74,0V12.74H966.31V935.22A6.37,6.37,0,0,1,959.94,941.59Z" fill="#3fb0ac"/><rect x="1005.41" y="67.57" width="417.17" height="77.34" fill="#fff"/><path d="M1422.57,151.28H1005.41a6.37,6.37,0,0,1-6.37-6.37V67.57a6.37,6.37,0,0,1,6.37-6.37h417.17a6.37,6.37,0,0,1,6.37,6.37v77.34A6.37,6.37,0,0,1,1422.57,151.28Zm-410.8-12.74H1416.2V73.94H1011.78v64.6Z" fill="#3fb0ac"/><rect x="1026.5" y="91.01" width="30.47" height="30.47" fill="#fff"/><path d="M1057,127.85H1026.5a6.37,6.37,0,0,1-6.37-6.37V91a6.37,6.37,0,0,1,6.37-6.37H1057a6.37,6.37,0,0,1,6.37,6.37v30.47A6.37,6.37,0,0,1,1057,127.85Zm-24.1-12.74h17.73V97.38h-17.73v17.73Z" fill="#3fb0ac"/><rect x="1087.25" y="91.01" width="30.47" height="30.47" fill="#fff"/><path d="M1117.72,127.85h-30.47a6.37,6.37,0,0,1-6.37-6.37V91a6.37,6.37,0,0,1,6.37-6.37h30.47a6.37,6.37,0,0,1,6.37,6.37v30.47A6.37,6.37,0,0,1,1117.72,127.85Zm-24.1-12.74h17.73V97.38h-17.73v17.73Z" fill="#3fb0ac"/><rect x="1148.01" y="91.01" width="30.47" height="30.47" fill="#fff"/><path d="M1178.48,127.85H1148a6.37,6.37,0,0,1-6.37-6.37V91a6.37,6.37,0,0,1,6.37-6.37h30.47a6.37,6.37,0,0,1,6.37,6.37v30.47A6.37,6.37,0,0,1,1178.48,127.85Zm-24.1-12.74h17.73V97.38h-17.73v17.73Z" fill="#3fb0ac"/><rect x="1313.6" y="91.01" width="87.88" height="30.47" fill="#fff"/><path d="M1401.48,127.85H1313.6a6.37,6.37,0,0,1-6.37-6.37V91a6.37,6.37,0,0,1,6.37-6.37h87.88a6.37,6.37,0,0,1,6.37,6.37v30.47A6.37,6.37,0,0,1,1401.48,127.85ZM1320,115.11h75.14V97.38H1320v17.73Z" fill="#3fb0ac"/><rect x="1005.41" y="172.84" width="417.17" height="77.34" fill="#fff"/><path d="M1422.57,256.55H1005.41a6.37,6.37,0,0,1-6.37-6.37V172.84a6.37,6.37,0,0,1,6.37-6.37h417.17a6.37,6.37,0,0,1,6.37,6.37v77.34A6.37,6.37,0,0,1,1422.57,256.55Zm-410.8-12.74H1416.2v-64.6H1011.78v64.6Z" fill="#3fb0ac"/><rect x="1005.41" y="278.11" width="417.17" height="77.34" fill="#fff"/><path d="M1422.57,361.82H1005.41a6.37,6.37,0,0,1-6.37-6.37V278.11a6.37,6.37,0,0,1,6.37-6.37h417.17a6.37,6.37,0,0,1,6.37,6.37v77.34A6.37,6.37,0,0,1,1422.57,361.82Zm-410.8-12.74H1416.2v-64.6H1011.78v64.6Z" fill="#3fb0ac"/><rect x="1005.41" y="383.38" width="417.17" height="77.34" fill="#fff"/><path d="M1422.57,467.09H1005.41a6.37,6.37,0,0,1-6.37-6.37V383.38a6.37,6.37,0,0,1,6.37-6.37h417.17a6.37,6.37,0,0,1,6.37,6.37v77.34A6.37,6.37,0,0,1,1422.57,467.09Zm-410.8-12.74H1416.2v-64.6H1011.78v64.6Z" fill="#3fb0ac"/><path d="M1422.57,542.67H1005.41a6.37,6.37,0,1,1,0-12.74h417.17A6.37,6.37,0,1,1,1422.57,542.67Z" fill="#3fb0ac"/><path d="M1344.94,536.3a26.5,26.5,0,0,1-26.5,26.5h-208.9a26.5,26.5,0,0,1-26.5-26.5h0a26.5,26.5,0,0,1,26.5-26.5h208.9a26.5,26.5,0,0,1,26.5,26.5h0Z" fill="#fff"/><path d="M1318.44,569.17h-208.9a32.87,32.87,0,1,1,0-65.75h208.9A32.87,32.87,0,0,1,1318.44,569.17Zm-208.9-53a20.13,20.13,0,1,0,0,40.27h208.9a20.13,20.13,0,0,0,0-40.27h-208.9Z" fill="#3fb0ac"/><path d="M1301.88,542.67H1126.1a6.37,6.37,0,1,1,0-12.74h175.77A6.37,6.37,0,1,1,1301.88,542.67Z" fill="#3fb0ac"/><path d="M1422.57,627.55H1005.41a6.37,6.37,0,1,1,0-12.74h417.17A6.37,6.37,0,1,1,1422.57,627.55Z" fill="#3fb0ac"/><path d="M1344.94,621.18a26.5,26.5,0,0,1-26.5,26.5h-208.9a26.5,26.5,0,0,1-26.5-26.5h0a26.5,26.5,0,0,1,26.5-26.5h208.9a26.5,26.5,0,0,1,26.5,26.5h0Z" fill="#fff"/><path d="M1318.44,654.06h-208.9a32.87,32.87,0,1,1,0-65.75h208.9A32.87,32.87,0,0,1,1318.44,654.06Zm-208.9-53a20.13,20.13,0,1,0,0,40.27h208.9a20.13,20.13,0,0,0,0-40.27h-208.9Z" fill="#3fb0ac"/><path d="M1301.88,627.55H1126.1a6.37,6.37,0,1,1,0-12.74h175.77A6.37,6.37,0,1,1,1301.88,627.55Z" fill="#3fb0ac"/><path d="M1084.24,712.44h-78.83a6.37,6.37,0,0,1,0-12.74h78.83A6.37,6.37,0,0,1,1084.24,712.44Z" fill="#3fb0ac"/><path d="M1189.82,738.94h-80.27a32.87,32.87,0,1,1,0-65.74h79.57a6.37,6.37,0,0,1,0,12.74h-79.57a20.13,20.13,0,1,0,0,40.26h80.27A6.37,6.37,0,0,1,1189.82,738.94Z" fill="#3fb0ac"/><rect x="453.1" y="949.01" width="449.67" height="50.11" fill="#fff"/><path d="M902.78,1005.49H453.1a6.37,6.37,0,0,1-6.37-6.37V949a6.37,6.37,0,0,1,6.37-6.37H902.78a6.37,6.37,0,0,1,6.37,6.37v50.11A6.37,6.37,0,0,1,902.78,1005.49Zm-443.3-12.74H896.41V955.38H459.47v37.37Z" fill="#3fb0ac"/><rect x="453.1" y="855.42" width="449.67" height="50.11" fill="#fff"/><path d="M902.78,911.91H453.1a6.37,6.37,0,0,1-6.37-6.37V855.42a6.37,6.37,0,0,1,6.37-6.37H902.78a6.37,6.37,0,0,1,6.37,6.37v50.11A6.37,6.37,0,0,1,902.78,911.91Zm-443.3-12.74H896.41V861.79H459.47v37.37Z" fill="#3fb0ac"/><rect x="453.1" y="761.84" width="449.67" height="50.11" fill="#fff"/><path d="M902.78,818.32H453.1a6.37,6.37,0,0,1-6.37-6.37V761.84a6.37,6.37,0,0,1,6.37-6.37H902.78a6.37,6.37,0,0,1,6.37,6.37V812A6.37,6.37,0,0,1,902.78,818.32Zm-443.3-12.74H896.41V768.21H459.47v37.37Z" fill="#3fb0ac"/><rect x="453.1" y="668.26" width="449.67" height="50.11" fill="#fff"/><path d="M902.78,724.74H453.1a6.37,6.37,0,0,1-6.37-6.37V668.26a6.37,6.37,0,0,1,6.37-6.37H902.78a6.37,6.37,0,0,1,6.37,6.37v50.11A6.37,6.37,0,0,1,902.78,724.74ZM459.47,712H896.41V674.63H459.47V712Z" fill="#3fb0ac"/><path d="M453.1,624.79a53.1,53.1,0,0,1,53-50.11H849.78a53.1,53.1,0,0,1,53,50.11H453.1Z" fill="#fff"/><path d="M902.8,631.16H453.1a6.37,6.37,0,0,1-6.36-6.73,59.5,59.5,0,0,1,59.35-56.12H849.78a59.5,59.5,0,0,1,59.32,55.58,6.44,6.44,0,0,1,.06.9A6.37,6.37,0,0,1,902.8,631.16ZM460.33,618.42H895.55A46.76,46.76,0,0,0,849.78,581H506.1A46.76,46.76,0,0,0,460.33,618.42Z" fill="#3fb0ac"/><path d="M540.33,479.16H435.24a6.37,6.37,0,0,1-6.09-4.52C425,461.13,413.35,452,400.06,452a28.86,28.86,0,0,0-7.62,1,6.37,6.37,0,0,1-7.53-3.61,83,83,0,0,0-158.64,24,6.37,6.37,0,0,1-6.33,5.69H117.45a6.37,6.37,0,0,1,0-12.74h96.94a95.73,95.73,0,0,1,180-26.74,41.61,41.61,0,0,1,5.66-.39c17.38,0,32.79,10.72,39.65,27.12H540.33A6.37,6.37,0,1,1,540.33,479.16Z" fill="#3fb0ac"/><path d="M417.19,1014.17H354.82a6.37,6.37,0,0,1-6.09-4.52c-2.11-6.93-8.05-11.58-14.79-11.58a14.57,14.57,0,0,0-3.84.51,6.37,6.37,0,0,1-7.52-3.61,46.67,46.67,0,0,0-89.21,13.5,6.37,6.37,0,0,1-6.33,5.69H181.6a6.37,6.37,0,0,1,0-12.74h40a59.41,59.41,0,0,1,110.49-16q0.93-.06,1.87-0.06a28.08,28.08,0,0,1,25.2,16.1h58.05A6.37,6.37,0,0,1,417.19,1014.17Z" fill="#3fb0ac"/><path d="M1351.33,990.53h-57.54a6.37,6.37,0,0,1-6.37-6.37v-0.21a84.59,84.59,0,0,0-84.49-84.49l-0.7,0-0.64,0a6.38,6.38,0,0,1-4.78-2,106.85,106.85,0,0,0-78.54-34,108,108,0,0,0-98.72,64.37,6.37,6.37,0,0,1-6.71,3.74,63.16,63.16,0,0,0-71.38,53.44,6.37,6.37,0,0,1-6.3,5.46H913.77a6.37,6.37,0,0,1,0-12.74h16.09A76,76,0,0,1,1004,918.26c1.93,0,3.89.08,5.86,0.23a120.73,120.73,0,0,1,108.39-67.71,119.41,119.41,0,0,1,85.85,35.94A97.36,97.36,0,0,1,1300,977.79h51.37A6.37,6.37,0,0,1,1351.33,990.53Z" fill="#3fb0ac"/><path d="M1220.32,948a6.37,6.37,0,0,1-6.37-6.37c0-15.59-12.82-37.71-17.76-44.92a6.37,6.37,0,0,1,10.51-7.2c0.82,1.19,20,29.42,20,52.12A6.37,6.37,0,0,1,1220.32,948Z" fill="#3fb0ac"/><path d="M873.56,388.89H729.42a6.37,6.37,0,0,1-6.37-6.37v-0.18A71.43,71.43,0,0,0,651.7,311h-0.55l-0.58,0a6.35,6.35,0,0,1-4.77-2,90.48,90.48,0,0,0-66.51-28.76,91.44,91.44,0,0,0-83.6,54.51A6.37,6.37,0,0,1,489,338.5a53.1,53.1,0,0,0-60,44.93,6.37,6.37,0,0,1-6.3,5.46h-34a6.37,6.37,0,0,1,0-12.74h28.7a66.27,66.27,0,0,1,64.18-50.92c1.47,0,3,.05,4.46.16a104.19,104.19,0,0,1,93.27-57.87,103,103,0,0,1,73.83,30.75,84.21,84.21,0,0,1,82.45,77.89h138A6.37,6.37,0,1,1,873.56,388.89Z" fill="#3fb0ac"/><path d="M666.58,352.52a6.37,6.37,0,0,1-6.37-6.37c0-13.11-10.85-31.8-15-37.9a6.37,6.37,0,1,1,10.51-7.2c0.71,1,17.26,25.4,17.26,45.1A6.37,6.37,0,0,1,666.58,352.52Z" fill="#3fb0ac"/><path d="M753.74,1259.55H642.92a6.37,6.37,0,0,1-6.3-5.46c-6.91-47.63-48.46-83.55-96.66-83.55a99.17,99.17,0,0,0-13.63,1,6.37,6.37,0,0,1-6.71-3.74,164.59,164.59,0,0,0-150.47-98.12,162.85,162.85,0,0,0-119.71,51.78,6.33,6.33,0,0,1-4.82,2l-0.7,0c-0.44,0-.88,0-1.33,0a129.62,129.62,0,0,0-129.48,129.47v0.32a6.37,6.37,0,0,1-6.37,6.37H6.37a6.37,6.37,0,1,1,0-12.74H100.5c3.18-75.47,65.45-135.92,141.63-136.16a177.11,177.11,0,0,1,287.18,47.69c3.6-.35,7.17-0.53,10.65-0.53a110.46,110.46,0,0,1,108.33,89H753.74A6.37,6.37,0,0,1,753.74,1259.55Z" fill="#3fb0ac"/><path d="M216.58,1196a6.37,6.37,0,0,1-6.37-6.37c0-33,28.13-74.39,29.33-76.13a6.37,6.37,0,0,1,10.51,7.2h0c-0.27.4-27.1,39.93-27.1,68.93A6.37,6.37,0,0,1,216.58,1196Z" fill="#3fb0ac"/><path d="M1344.94,882.27h-80a6.37,6.37,0,0,1,0-12.74h80A6.37,6.37,0,1,1,1344.94,882.27Z" fill="#3fb0ac"/><path d="M871.18,1259.55H804.38a6.37,6.37,0,0,1,0-12.74h66.79A6.37,6.37,0,0,1,871.18,1259.55Z" fill="#3fb0ac"/><path d="M161.05,1014.17H90.74a6.37,6.37,0,0,1,0-12.74h70.31A6.37,6.37,0,0,1,161.05,1014.17Z" fill="#3fb0ac"/><path d="M2217,608.21h-69.6a6.37,6.37,0,0,1-6.09-4.52c-2.45-8-9.36-13.45-17.21-13.45a17,17,0,0,0-4.49.6,6.37,6.37,0,0,1-7.52-3.61,52.81,52.81,0,0,0-101,15.28,6.37,6.37,0,0,1-6.33,5.69h-42.33a6.37,6.37,0,1,1,0-12.74h36.85a65.56,65.56,0,0,1,122.26-17.86q1.25-.11,2.51-0.11a30.63,30.63,0,0,1,27.66,18H2217A6.37,6.37,0,1,1,2217,608.21Z" fill="#3fb0ac"/><path d="M1925.93,608.21h-86.71a6.37,6.37,0,1,1,0-12.74h86.71A6.37,6.37,0,1,1,1925.93,608.21Z" fill="#3fb0ac"/><path d="M2137.63,426.33H2087a6.37,6.37,0,0,1-6.37-6.37v-0.19a73.62,73.62,0,0,0-73.54-73.54h-0.57l-0.61,0a6.28,6.28,0,0,1-4.76-2,93.2,93.2,0,0,0-68.51-29.63,94.2,94.2,0,0,0-86.12,56.16,6.37,6.37,0,0,1-6.72,3.73,54.77,54.77,0,0,0-61.91,46.35,6.37,6.37,0,0,1-6.3,5.46h-67.26a6.37,6.37,0,1,1,0-12.74h62a68,68,0,0,1,65.85-52.35c1.55,0,3.11.06,4.69,0.17a106.94,106.94,0,0,1,95.79-59.51,105.75,105.75,0,0,1,75.83,31.61,86.4,86.4,0,0,1,84.68,80.09h44.46A6.37,6.37,0,1,1,2137.63,426.33Z" fill="#3fb0ac"/><path d="M2022.41,388.94a6.37,6.37,0,0,1-6.37-6.37c0-13.47-11.18-32.77-15.48-39.07a6.37,6.37,0,0,1,10.51-7.2c0.72,1.06,17.71,26.08,17.71,46.27A6.37,6.37,0,0,1,2022.41,388.94Z" fill="#3fb0ac"/><path d="M1670,426.33h-67.48a6.37,6.37,0,1,1,0-12.74H1670A6.37,6.37,0,1,1,1670,426.33Z" fill="#3fb0ac"/><rect x="1509.83" y="1114.69" width="30.51" height="65.32" fill="#d9efee"/><path d="M1327.32,1207.42h447.49a30.16,30.16,0,0,0-30-27.41h-467A300.19,300.19,0,0,1,1327.32,1207.42Z" fill="#fff"/><path d="M1774.81,1213.79H1327.32a6.36,6.36,0,0,1-3.59-1.11,294.57,294.57,0,0,0-48.47-26.83,6.37,6.37,0,0,1,2.54-12.21h467a36.33,36.33,0,0,1,36.37,33.21A6.37,6.37,0,0,1,1774.81,1213.79ZM1329.28,1201h437.5a23.65,23.65,0,0,0-22-14.67H1305.21Q1317.54,1193.14,1329.28,1201Z" fill="#3fb0ac"/><path d="M1918.77,1267.67V1197H1560.19v133.59h305.57A178.93,178.93,0,0,1,1918.77,1267.67Z" fill="#fff"/><path d="M1865.76,1337H1560.19a6.37,6.37,0,0,1-6.37-6.37V1197a6.37,6.37,0,0,1,6.37-6.37h358.58a6.37,6.37,0,0,1,6.37,6.37v70.65a6.37,6.37,0,0,1-2.57,5.11,173.29,173.29,0,0,0-51.12,60.7A6.37,6.37,0,0,1,1865.76,1337Zm-299.2-12.74h295.33a186.25,186.25,0,0,1,50.51-59.74V1203.4H1566.56v120.85Z" fill="#3fb0ac"/><rect x="1217.74" y="680.26" width="553.03" height="434.42" fill="#fff"/><path d="M1770.77,1121.06h-553a6.37,6.37,0,0,1-6.37-6.37V680.26a6.37,6.37,0,0,1,6.37-6.37h553a6.37,6.37,0,0,1,6.37,6.37v434.42A6.37,6.37,0,0,1,1770.77,1121.06Zm-546.66-12.74H1764.4V686.63H1224.11v421.68Z" fill="#3fb0ac"/><path d="M1728.29,711.19H1260.22a15.08,15.08,0,0,0-15.08,15.08v9h452.64a15.08,15.08,0,0,1,15.08,15.08v333.42h15.43a15.08,15.08,0,0,0,15.08-15.08V726.27A15.08,15.08,0,0,0,1728.29,711.19Z" fill="#d9efee"/><path d="M1728.29,1090.12H1260.22a21.48,21.48,0,0,1-21.45-21.45V726.27a21.48,21.48,0,0,1,21.45-21.45h468.07a21.48,21.48,0,0,1,21.45,21.45v342.4A21.48,21.48,0,0,1,1728.29,1090.12ZM1260.22,717.56a8.72,8.72,0,0,0-8.71,8.71v342.4a8.72,8.72,0,0,0,8.71,8.71h468.07a8.72,8.72,0,0,0,8.71-8.71V726.27a8.72,8.72,0,0,0-8.71-8.71H1260.22Z" fill="#3fb0ac"/><path d="M1540.35,1186.38h-92.17a6.37,6.37,0,0,1-6.37-6.37v-65.32a6.37,6.37,0,0,1,6.37-6.37h92.17a6.37,6.37,0,0,1,6.37,6.37V1180A6.37,6.37,0,0,1,1540.35,1186.38Zm-85.8-12.74H1534v-52.58h-79.43v52.58Z" fill="#3fb0ac"/><circle cx="1774.81" cy="1263.82" r="16.06" fill="#fff"/><path d="M1774.81,1286.25a22.43,22.43,0,1,1,22.43-22.43A22.45,22.45,0,0,1,1774.81,1286.25Zm0-32.11a9.69,9.69,0,1,0,9.69,9.69A9.7,9.7,0,0,0,1774.81,1254.14Z" fill="#3fb0ac"/><circle cx="1826.37" cy="1263.82" r="16.06" fill="#fff"/><path d="M1826.37,1286.25a22.43,22.43,0,1,1,22.43-22.43A22.45,22.45,0,0,1,1826.37,1286.25Zm0-32.11a9.69,9.69,0,1,0,9.69,9.69A9.7,9.7,0,0,0,1826.37,1254.14Z" fill="#3fb0ac"/><circle cx="1877.93" cy="1263.82" r="16.06" fill="#fff"/><path d="M1877.93,1286.25a22.43,22.43,0,1,1,22.43-22.43A22.45,22.45,0,0,1,1877.93,1286.25Zm0-32.11a9.69,9.69,0,1,0,9.69,9.69A9.7,9.7,0,0,0,1877.93,1254.14Z" fill="#3fb0ac"/><rect x="1584.97" y="1238.23" width="110.15" height="51.18" fill="#fff"/><path d="M1695.12,1295.78H1585a6.37,6.37,0,0,1-6.37-6.37v-51.18a6.37,6.37,0,0,1,6.37-6.37h110.15a6.37,6.37,0,0,1,6.37,6.37v51.18A6.37,6.37,0,0,1,1695.12,1295.78ZM1591.34,1283h97.41v-38.44h-97.41V1283Z" fill="#3fb0ac"/><rect x="1560.19" y="1013.09" width="358.58" height="133.59" fill="#fff"/><path d="M1918.77,1153H1560.19a6.37,6.37,0,0,1-6.37-6.37V1013.09a6.37,6.37,0,0,1,6.37-6.37h358.58a6.37,6.37,0,0,1,6.37,6.37v133.59A6.37,6.37,0,0,1,1918.77,1153Zm-352.21-12.74H1912.4V1019.46H1566.56v120.85Z" fill="#3fb0ac"/><circle cx="1774.81" cy="1079.88" r="16.06" fill="#fff"/><path d="M1774.81,1102.31a22.43,22.43,0,1,1,22.43-22.43A22.45,22.45,0,0,1,1774.81,1102.31Zm0-32.11a9.69,9.69,0,1,0,9.69,9.69A9.7,9.7,0,0,0,1774.81,1070.2Z" fill="#3fb0ac"/><circle cx="1826.37" cy="1079.88" r="16.06" fill="#fff"/><path d="M1826.37,1102.31a22.43,22.43,0,1,1,22.43-22.43A22.45,22.45,0,0,1,1826.37,1102.31Zm0-32.11a9.69,9.69,0,1,0,9.69,9.69A9.7,9.7,0,0,0,1826.37,1070.2Z" fill="#3fb0ac"/><circle cx="1877.93" cy="1079.88" r="16.06" fill="#fff"/><path d="M1877.93,1102.31a22.43,22.43,0,1,1,22.43-22.43A22.45,22.45,0,0,1,1877.93,1102.31Zm0-32.11a9.69,9.69,0,1,0,9.69,9.69A9.7,9.7,0,0,0,1877.93,1070.2Z" fill="#3fb0ac"/><rect x="1584.97" y="1054.3" width="110.15" height="51.18" fill="#fff"/><path d="M1695.12,1111.84H1585a6.37,6.37,0,0,1-6.37-6.37V1054.3a6.37,6.37,0,0,1,6.37-6.37h110.15a6.37,6.37,0,0,1,6.37,6.37v51.18A6.37,6.37,0,0,1,1695.12,1111.84Zm-103.78-12.74h97.41v-38.44h-97.41v38.44Z" fill="#3fb0ac"/><rect x="1560.19" y="829.15" width="358.58" height="133.59" fill="#fff"/><path d="M1918.77,969.11H1560.19a6.37,6.37,0,0,1-6.37-6.37V829.15a6.37,6.37,0,0,1,6.37-6.37h358.58a6.37,6.37,0,0,1,6.37,6.37V962.74A6.37,6.37,0,0,1,1918.77,969.11Zm-352.21-12.74H1912.4V835.52H1566.56V956.37Z" fill="#3fb0ac"/><circle cx="1774.81" cy="895.95" r="16.06" fill="#fff"/><path d="M1774.81,918.37a22.43,22.43,0,1,1,22.43-22.43A22.45,22.45,0,0,1,1774.81,918.37Zm0-32.11a9.69,9.69,0,1,0,9.69,9.69A9.7,9.7,0,0,0,1774.81,886.26Z" fill="#3fb0ac"/><circle cx="1826.37" cy="895.95" r="16.06" fill="#fff"/><path d="M1826.37,918.37a22.43,22.43,0,1,1,22.43-22.43A22.45,22.45,0,0,1,1826.37,918.37Zm0-32.11a9.69,9.69,0,1,0,9.69,9.69A9.7,9.7,0,0,0,1826.37,886.26Z" fill="#3fb0ac"/><circle cx="1877.93" cy="895.95" r="16.06" fill="#fff"/><path d="M1877.93,918.37a22.43,22.43,0,1,1,22.43-22.43A22.45,22.45,0,0,1,1877.93,918.37Zm0-32.11a9.69,9.69,0,1,0,9.69,9.69A9.7,9.7,0,0,0,1877.93,886.26Z" fill="#3fb0ac"/><rect x="1584.97" y="870.36" width="110.15" height="51.18" fill="#fff"/><path d="M1695.12,927.91H1585a6.37,6.37,0,0,1-6.37-6.37V870.36A6.37,6.37,0,0,1,1585,864h110.15a6.37,6.37,0,0,1,6.37,6.37v51.18A6.37,6.37,0,0,1,1695.12,927.91Zm-103.78-12.74h97.41V876.73h-97.41v38.44Z" fill="#3fb0ac"/><path d="M1939.44,1430.06H1585.28a6.37,6.37,0,0,1-6.09-4.52c-15.81-52-61-86.89-112.47-86.89a112,112,0,0,0-29.68,4,6.37,6.37,0,0,1-7.53-3.61A294.77,294.77,0,0,0,866,1424.37a6.37,6.37,0,0,1-6.33,5.69H601.78a6.37,6.37,0,0,1,0-12.74H854A307.51,307.51,0,0,1,1439,1329a125.33,125.33,0,0,1,105.68,24.06,137.24,137.24,0,0,1,45.24,64.23h349.51A6.37,6.37,0,0,1,1939.44,1430.06Z" fill="#3fb0ac"/><path d="M2351.34,1194h-85.6a6.37,6.37,0,0,1-6.09-4.52c-3.2-10.51-12.27-17.58-22.57-17.58a22.37,22.37,0,0,0-5.9.79,6.37,6.37,0,0,1-7.52-3.61,66.41,66.41,0,0,0-127,19.22,6.37,6.37,0,0,1-6.33,5.69H2028a6.37,6.37,0,1,1,0-12.74h56.82a79.16,79.16,0,0,1,148.3-21.87,35,35,0,0,1,3.93-.22c14.38,0,27.16,8.7,33.08,22.09h81.18A6.37,6.37,0,1,1,2351.34,1194Z" fill="#3fb0ac"/><path d="M2360.94,1397.9h-83.81a6.37,6.37,0,0,1-6.09-4.52c-9-29.65-34.77-49.57-64.07-49.57a63.6,63.6,0,0,0-16.87,2.27,6.37,6.37,0,0,1-7.53-3.61,171.83,171.83,0,0,0-328.48,49.73,6.37,6.37,0,0,1-6.33,5.69H1695.12a6.37,6.37,0,1,1,0-12.74h147A184.58,184.58,0,0,1,2192,1332.53a76.54,76.54,0,0,1,14.91-1.46c33.42,0,62.91,21.54,74.75,54.09h79.22A6.37,6.37,0,1,1,2360.94,1397.9Z" fill="#3fb0ac"/><path d="M2194.79,1077.52h-66.16a6.37,6.37,0,0,1-6.37-6.37V1071a37.08,37.08,0,0,0-37-37h-0.52a6.36,6.36,0,0,1-4.83-2,47.76,47.76,0,0,0-35.1-15.18,48.26,48.26,0,0,0-44.12,28.77,6.36,6.36,0,0,1-6.71,3.74,26.85,26.85,0,0,0-30.35,22.72,6.37,6.37,0,0,1-6.3,5.46h-10.22a6.37,6.37,0,0,1,0-12.74h5.11a39.84,39.84,0,0,1,38.83-28.43,61,61,0,0,1,53.77-32.25,60.31,60.31,0,0,1,42.43,17.2,49.87,49.87,0,0,1,47.41,43.47h60.18A6.37,6.37,0,1,1,2194.79,1077.52Z" fill="#3fb0ac"/><path d="M2093.52,1057.2a6.37,6.37,0,0,1-6.37-6.37c0-6.57-5.85-16.59-7.9-19.58a6.37,6.37,0,0,1,10.51-7.2c1,1.51,10.13,15.12,10.13,26.78A6.37,6.37,0,0,1,2093.52,1057.2Z" fill="#3fb0ac"/><path d="M2264.26,1077.52H2216.8a6.37,6.37,0,0,1,0-12.74h47.46A6.37,6.37,0,1,1,2264.26,1077.52Z" fill="#3fb0ac"/><path d="M502.15,1127a170.85,170.85,0,0,1,23.29,38.19,105,105,0,0,1,14.51-1,103.55,103.55,0,0,1,50.29,13H849.78a53.1,53.1,0,0,0,53-50.11H502.15Z" fill="#fff"/><path d="M849.78,1183.5H590.25a6.37,6.37,0,0,1-3.08-.8A97.74,97.74,0,0,0,540,1170.54a99.16,99.16,0,0,0-13.63,1,6.37,6.37,0,0,1-6.71-3.74A164.55,164.55,0,0,0,497.19,1131a6.37,6.37,0,0,1,5-10.37H902.78a6.37,6.37,0,0,1,6.36,6.73A59.5,59.5,0,0,1,849.78,1183.5Zm-257.91-12.74H849.78a46.76,46.76,0,0,0,45.76-37.37H514.87a176.74,176.74,0,0,1,14.44,24.94c3.6-.35,7.17-0.53,10.66-0.53A110.54,110.54,0,0,1,591.87,1170.76Z" fill="#3fb0ac"/><path d="M453.1,1042.59v42.75c4,2.29,8,4.76,11.82,7.37H902.78v-50.11H453.1Z" fill="#fff"/><path d="M902.78,1099.07H464.92a6.37,6.37,0,0,1-3.58-1.1c-3.81-2.59-7.64-5-11.38-7.09a6.37,6.37,0,0,1-3.23-5.54v-42.75a6.37,6.37,0,0,1,6.37-6.37H902.78a6.37,6.37,0,0,1,6.37,6.37v50.11A6.37,6.37,0,0,1,902.78,1099.07Zm-435.91-12.74H896.41V1049H459.47v32.71C461.92,1083.13,464.4,1084.69,466.86,1086.33Z" fill="#3fb0ac"/><rect x="1026.5" y="193.4" width="30.47" height="30.47" fill="#fff"/><path d="M1057,230.24H1026.5a6.37,6.37,0,0,1-6.37-6.37V193.4a6.37,6.37,0,0,1,6.37-6.37H1057a6.37,6.37,0,0,1,6.37,6.37v30.47A6.37,6.37,0,0,1,1057,230.24Zm-24.1-12.74h17.73V199.77h-17.73V217.5Z" fill="#3fb0ac"/><rect x="1087.25" y="193.4" width="30.47" height="30.47" fill="#fff"/><path d="M1117.72,230.24h-30.47a6.37,6.37,0,0,1-6.37-6.37V193.4a6.37,6.37,0,0,1,6.37-6.37h30.47a6.37,6.37,0,0,1,6.37,6.37v30.47A6.37,6.37,0,0,1,1117.72,230.24Zm-24.1-12.74h17.73V199.77h-17.73V217.5Z" fill="#3fb0ac"/><rect x="1148.01" y="193.4" width="30.47" height="30.47" fill="#fff"/><path d="M1178.48,230.24H1148a6.37,6.37,0,0,1-6.37-6.37V193.4A6.37,6.37,0,0,1,1148,187h30.47a6.37,6.37,0,0,1,6.37,6.37v30.47A6.37,6.37,0,0,1,1178.48,230.24Zm-24.1-12.74h17.73V199.77h-17.73V217.5Z" fill="#3fb0ac"/><rect x="1313.6" y="193.4" width="87.88" height="30.47" fill="#fff"/><path d="M1401.48,230.24H1313.6a6.37,6.37,0,0,1-6.37-6.37V193.4a6.37,6.37,0,0,1,6.37-6.37h87.88a6.37,6.37,0,0,1,6.37,6.37v30.47A6.37,6.37,0,0,1,1401.48,230.24ZM1320,217.5h75.14V199.77H1320V217.5Z" fill="#3fb0ac"/><rect x="1026.5" y="303.44" width="30.47" height="30.47" fill="#fff"/><path d="M1057,340.28H1026.5a6.37,6.37,0,0,1-6.37-6.37V303.44a6.37,6.37,0,0,1,6.37-6.37H1057a6.37,6.37,0,0,1,6.37,6.37v30.47A6.37,6.37,0,0,1,1057,340.28Zm-24.1-12.74h17.73V309.81h-17.73v17.73Z" fill="#3fb0ac"/><rect x="1087.25" y="303.44" width="30.47" height="30.47" fill="#fff"/><path d="M1117.72,340.28h-30.47a6.37,6.37,0,0,1-6.37-6.37V303.44a6.37,6.37,0,0,1,6.37-6.37h30.47a6.37,6.37,0,0,1,6.37,6.37v30.47A6.37,6.37,0,0,1,1117.72,340.28Zm-24.1-12.74h17.73V309.81h-17.73v17.73Z" fill="#3fb0ac"/><rect x="1148.01" y="303.44" width="30.47" height="30.47" fill="#fff"/><path d="M1178.48,340.28H1148a6.37,6.37,0,0,1-6.37-6.37V303.44a6.37,6.37,0,0,1,6.37-6.37h30.47a6.37,6.37,0,0,1,6.37,6.37v30.47A6.37,6.37,0,0,1,1178.48,340.28Zm-24.1-12.74h17.73V309.81h-17.73v17.73Z" fill="#3fb0ac"/><rect x="1313.6" y="303.44" width="87.88" height="30.47" fill="#fff"/><path d="M1401.48,340.28H1313.6a6.37,6.37,0,0,1-6.37-6.37V303.44a6.37,6.37,0,0,1,6.37-6.37h87.88a6.37,6.37,0,0,1,6.37,6.37v30.47A6.37,6.37,0,0,1,1401.48,340.28ZM1320,327.54h75.14V309.81H1320v17.73Z" fill="#3fb0ac"/><rect x="1026.5" y="407.52" width="30.47" height="30.47" fill="#fff"/><path d="M1057,444.36H1026.5a6.37,6.37,0,0,1-6.37-6.37V407.52a6.37,6.37,0,0,1,6.37-6.37H1057a6.37,6.37,0,0,1,6.37,6.37V438A6.37,6.37,0,0,1,1057,444.36Zm-24.1-12.74h17.73V413.89h-17.73v17.73Z" fill="#3fb0ac"/><rect x="1087.25" y="407.52" width="30.47" height="30.47" fill="#fff"/><path d="M1117.72,444.36h-30.47a6.37,6.37,0,0,1-6.37-6.37V407.52a6.37,6.37,0,0,1,6.37-6.37h30.47a6.37,6.37,0,0,1,6.37,6.37V438A6.37,6.37,0,0,1,1117.72,444.36Zm-24.1-12.74h17.73V413.89h-17.73v17.73Z" fill="#3fb0ac"/><rect x="1148.01" y="407.52" width="30.47" height="30.47" fill="#fff"/><path d="M1178.48,444.36H1148a6.37,6.37,0,0,1-6.37-6.37V407.52a6.37,6.37,0,0,1,6.37-6.37h30.47a6.37,6.37,0,0,1,6.37,6.37V438A6.37,6.37,0,0,1,1178.48,444.36Zm-24.1-12.74h17.73V413.89h-17.73v17.73Z" fill="#3fb0ac"/><rect x="1313.6" y="407.52" width="87.88" height="30.47" fill="#fff"/><path d="M1401.48,444.36H1313.6a6.37,6.37,0,0,1-6.37-6.37V407.52a6.37,6.37,0,0,1,6.37-6.37h87.88a6.37,6.37,0,0,1,6.37,6.37V438A6.37,6.37,0,0,1,1401.48,444.36ZM1320,431.62h75.14V413.89H1320v17.73Z" fill="#3fb0ac"/><path d="M1385.63,1372.63a6.41,6.41,0,0,1-4.49-11,125.87,125.87,0,0,1,53-31,6.41,6.41,0,0,1,3.57,12.32,113,113,0,0,0-47.54,27.85A6.39,6.39,0,0,1,1385.63,1372.63Z" fill="#3fb0ac"/></svg>
