<svg id="Layer_1" data-name="Layer 1" xmlns="http://www.w3.org/2000/svg" width="100" height="100" viewBox="0 0 100 100"><title>plug</title><path d="M91.11,26.07c-4.82-3.75-11.3-5.77-19.29-6a24.27,24.27,0,0,0-3.5-8.92A20.68,20.68,0,0,0,55.61,2.57l-0.16,0-19-2.11-0.41-.08L35.8,0.3,35,0.18l-0.35,0-0.75-.07L33.59,0c-0.36,0-.72,0-1.09,0-7,0-13.21,3.9-17.34,10H7.5a7.5,7.5,0,0,0,0,15h2.6c-0.06.82-.1,1.66-0.1,2.5s0,1.67.1,2.5H7.5a7.5,7.5,0,0,0,0,15h7.66c4.13,6.1,10.37,10,17.34,10,0.36,0,.72,0,1.08,0l0.34,0,0.75-.07,0.35,0,0.77-.11,0.28-.05,0.41-.08,19-2.11,0.16,0a20.7,20.7,0,0,0,12.72-8.54A24.25,24.25,0,0,0,71.81,35C85,35.63,85,42.64,85,45c0,9.62-9.06,14.86-30.31,17.52C18.93,67,5,76.1,5,95v5H20V95c0-2.88,0-5.59,3.85-8.5,5.27-4,16.28-7,32.7-9.09,12.65-1.58,21.63-4,28.27-7.73C97.36,62.71,100,52.41,100,45A23.35,23.35,0,0,0,91.11,26.07ZM7.5,20a2.5,2.5,0,1,1,0-5h0A2.5,2.5,0,0,1,7.5,20Zm0,20a2.5,2.5,0,0,1-2.2-1.31A2.47,2.47,0,0,1,5,37.5,2.5,2.5,0,0,1,7.5,35h0A2.5,2.5,0,0,1,7.5,40Zm7.06-25H30a2.5,2.5,0,1,1,0,5H14.56A7.37,7.37,0,0,0,14.56,15Zm0,25a7.36,7.36,0,0,0,0-5H30a2.5,2.5,0,1,1,0,5H14.56ZM50,28.59c0,0.11,0,.22,0,0.32,0,0.26,0,.52,0,0.77s0,0.22,0,.34,0,0.51-.08.76c0,0.1,0,.2,0,0.3,0,0.28-.07.55-0.11,0.83,0,0.07,0,.14,0,0.2q-0.08.5-.18,1v0c-1.51,7.52-6,13.52-11.7,15.84L37.58,49,37,49.24l-0.31.1-0.47.14-0.37.1-0.25.06L32.4,50a15.25,15.25,0,0,1-10.87-5H30a7.5,7.5,0,0,0,0-15H15.11Q15,28.76,15,27.5c0-.85,0-1.68.11-2.5H30a7.5,7.5,0,0,0,0-15H21.52A15.25,15.25,0,0,1,32.39,5l3.2,0.35,0.24,0.05,0.38,0.1,0.46,0.14L37,5.75,37.58,6,37.75,6c5.72,2.32,10.19,8.33,11.7,15.84v0c0.07,0.32.12,0.65,0.18,1,0,0.07,0,.14,0,0.21,0,0.27.08,0.54,0.11,0.83,0,0.09,0,.2,0,0.3,0,0.25.05,0.51,0.08,0.76s0,0.22,0,.34,0,0.52,0,.77c0,0.11,0,.21,0,0.32,0,0.36,0,.73,0,1.1S50,28.23,50,28.59Zm22.45,1.47v0l0.07,0H72.43Zm0-5v0H72.5Zm10,40.2c-6.06,3.37-14.47,5.64-26.46,7.14-17.55,2.19-29,5.48-35.09,10.06C15,86.91,15,91.78,15,95H10c0-13.49,7.58-22.8,45.31-27.52C72.47,65.33,90,61,90,45c0-4.28-1.53-10.77-10-13.6V26.18A22.21,22.21,0,0,1,88,30a18.45,18.45,0,0,1,7,15C95,51.06,92.81,59.51,82.39,65.3Z" fill="#f8f8f8"/></svg>