<svg id="Layer_1" data-name="Layer 1" xmlns="http://www.w3.org/2000/svg" width="2118.79" height="1524.03" viewBox="0 0 2118.79 1524.03"><title>problems</title><path d="M584.48,237.36a47.79,47.79,0,0,0-47.8-47.79H216.43a47.8,47.8,0,0,0-47.8,47.79V529c0,12.25,5.82,27.76,20.93,40.82,29.6,25.6,131.34,97.24,171,125,10,7,22.75,6.75,33.76-.67C433.57,667.67,527.08,599.49,565.1,571c12.23-9.17,19.37-25,19.37-39.5V237.36Z" transform="translate(-1.6 -0.98)" fill="#d9efee"/><path d="M409.38,497.18V406.35a48.08,48.08,0,0,0-48.08-48.08H168.63V542.33a8.22,8.22,0,0,0,.66,2.93h192A48.08,48.08,0,0,0,409.38,497.18Z" transform="translate(-1.6 -0.98)" fill="#b2dfde"/><path d="M376.54,708.6h0a36.43,36.43,0,0,1-21-6.65c-41.74-29.19-142-99.85-171.74-125.54-15.22-13.16-24-30.45-24-47.44V237.36a56.61,56.61,0,0,1,56.54-56.54H536.68a56.61,56.61,0,0,1,56.54,56.54V531.48c0,17.83-9,36.08-22.87,46.5-37.52,28.12-131,96.33-171.11,123.38A40.67,40.67,0,0,1,376.54,708.6ZM216.43,198.32a39.09,39.09,0,0,0-39.05,39V529c0,5.63,1.74,20.23,17.9,34.21,29.1,25.17,128.8,95.41,170.32,124.44a18.77,18.77,0,0,0,10.94,3.49,23.28,23.28,0,0,0,12.92-4.25c39.28-26.48,134-95.57,170.4-122.87,9.49-7.12,15.87-20.18,15.87-32.5V237.36a39.09,39.09,0,0,0-39.05-39H216.43Z" transform="translate(-1.6 -0.98)" fill="#3fb0ac"/><path d="M377.07,655.18h0a31,31,0,0,1-17.25-5.54c-33.08-22.29-112.48-82.56-141.22-105.45-9-7.18-13.78-17.45-13.78-29.7v-257c0-23.37,9.76-27.94,26.62-27.94H517.58c20.67,0,30.72,9.68,30.72,29.6V517.48c0,13-5.48,20-13.72,26.65-30.47,24.45-110.87,85.1-142.68,106.52A26.46,26.46,0,0,1,377.07,655.18ZM231.44,238.3c-12.07,0-17.88.82-17.88,19.2v257c0,9.63,3.53,17.32,10.48,22.86,28.65,22.82,107.75,82.87,140.66,105a22.26,22.26,0,0,0,12.36,4.05h0a17.51,17.51,0,0,0,9.95-3c31.65-21.31,111.74-81.72,142.1-106.08,7.81-6.27,10.44-11.27,10.44-19.82V259.15c0-15-6.16-20.85-22-20.85H231.44Z" transform="translate(-1.6 -0.98)" fill="#3fb0ac"/><path d="M307.91,1488.07H690.77c2.59,14.78,15,28.2,29.93,28.2h41.73a2.4,2.4,0,0,0,1.12-.33V1328.27a2.39,2.39,0,0,0-1.12-.32H720.7c-14.93,0-27.34,13.41-29.93,28.19H307.91a30.44,30.44,0,0,0-30.45,30.44v71A30.45,30.45,0,0,0,307.91,1488.07Z" transform="translate(-1.6 -0.98)" fill="#d9efee"/><path d="M762.43,1525H720.7c-16.16,0-30.88-11.7-36.66-28.2H307.91a39.24,39.24,0,0,1-39.19-39.19v-71.05a39.23,39.23,0,0,1,39.19-39.19H684c5.78-16.49,20.5-28.19,36.66-28.19h41.73a11,11,0,0,1,5.24,1.35,8.75,8.75,0,0,1,4.63,7.72v187.67a8.75,8.75,0,0,1-4.63,7.72A11,11,0,0,1,762.43,1525ZM307.91,1364.89a21.72,21.72,0,0,0-21.7,21.69v71.05a21.72,21.72,0,0,0,21.7,21.69H690.77a8.75,8.75,0,0,1,8.62,7.24c1.77,10.08,10.42,21,21.32,21h34.1V1336.7H720.7c-10.9,0-19.55,10.88-21.32,21a8.75,8.75,0,0,1-8.62,7.24H307.91Z" transform="translate(-1.6 -0.98)" fill="#3fb0ac"/><path d="M674.46,1448.9H319.75a26.79,26.79,0,1,1,0-53.58H674.46A26.79,26.79,0,1,1,674.46,1448.9Zm-354.71-36.08a9.3,9.3,0,1,0,0,18.59H674.46a9.3,9.3,0,1,0,0-18.59H319.75Z" transform="translate(-1.6 -0.98)" fill="#3fb0ac"/><polygon points="764.21 1449.32 1127.32 1449.32 1127.32 1466.23 1313.38 1445.93 1313.38 1396.31 1127.32 1376.02 1127.32 1392.93 764.21 1392.93 764.21 1449.32" fill="#f7fcfc"/><path d="M1128.92,1476a8.75,8.75,0,0,1-8.75-8.75V1459H765.81a8.75,8.75,0,0,1-8.75-8.75v-56.38a8.75,8.75,0,0,1,8.75-8.75h354.37V1377a8.75,8.75,0,0,1,9.7-8.7l186.06,20.29a8.75,8.75,0,0,1,7.8,8.7v49.62a8.75,8.75,0,0,1-7.8,8.7l-186.06,20.3A8.83,8.83,0,0,1,1128.92,1476Zm-354.37-34.41h354.37a8.75,8.75,0,0,1,8.75,8.75v7.16l168.56-18.39v-33.93l-168.56-18.38v7.16a8.75,8.75,0,0,1-8.75,8.75H774.56v38.89Z" transform="translate(-1.6 -0.98)" fill="#3fb0ac"/><rect x="197.58" y="1178.6" width="118.08" height="61.15" rx="10.54" ry="10.54" fill="#fff"/><path d="M306.71,1249.48h-97a19.31,19.31,0,0,1-19.29-19.29v-40.07a19.31,19.31,0,0,1,19.29-19.29h97A19.31,19.31,0,0,1,326,1190.13v40.07A19.31,19.31,0,0,1,306.71,1249.48Zm-97-61.15a1.79,1.79,0,0,0-1.79,1.79v40.07a1.79,1.79,0,0,0,1.79,1.79h97a1.8,1.8,0,0,0,1.8-1.79v-40.07a1.8,1.8,0,0,0-1.8-1.79h-97Z" transform="translate(-1.6 -0.98)" fill="#3fb0ac"/><rect x="185.45" y="742.69" width="142.33" height="113.86" fill="#fff"/><path d="M338.13,866.28H178.3V734.92H338.13V866.28ZM195.8,848.78H320.63V752.42H195.8v96.37Z" transform="translate(-1.6 -0.98)" fill="#3fb0ac"/><rect x="168.06" y="856.55" width="177.11" height="344.72" fill="#f7fcfc"/><path d="M355.52,1211H160.91V848.78h194.6V1211Zm-177.11-17.49H338V866.28H178.41v327.23Z" transform="translate(-1.6 -0.98)" fill="#3fb0ac"/><rect x="211.63" y="767.43" width="26.71" height="26.71" fill="#3fb0ac"/><rect x="274.89" y="767.43" width="26.71" height="26.71" fill="#3fb0ac"/><path d="M258.21,1150.07a23.9,23.9,0,0,0,23.9-23.9V929.37a23.9,23.9,0,0,0-23.9-23.9h0a23.9,23.9,0,0,0-23.89,23.9v196.79a23.9,23.9,0,0,0,23.89,23.9h0Z" transform="translate(-1.6 -0.98)" fill="#d9efee"/><path d="M258.21,1158.82a32.68,32.68,0,0,1-32.64-32.65V929.37a32.64,32.64,0,1,1,65.29,0v196.79A32.69,32.69,0,0,1,258.21,1158.82Zm0-244.6a15.17,15.17,0,0,0-15.14,15.15v196.79a15.15,15.15,0,1,0,30.3,0V929.37A15.17,15.17,0,0,0,258.21,914.22Z" transform="translate(-1.6 -0.98)" fill="#3fb0ac"/><rect x="453.86" y="417.17" width="1073.35" height="814.06" rx="36.18" ry="36.18" fill="#f7fcfc"/><path d="M1492.64,1241h-1001A45,45,0,0,1,446.72,1196V454.33a45,45,0,0,1,44.93-44.93h1001a45,45,0,0,1,44.93,44.93V1196A45,45,0,0,1,1492.64,1241ZM491.64,426.9a27.46,27.46,0,0,0-27.43,27.43V1196a27.47,27.47,0,0,0,27.43,27.44h1001a27.47,27.47,0,0,0,27.43-27.44V454.33a27.46,27.46,0,0,0-27.43-27.43h-1001Z" transform="translate(-1.6 -0.98)" fill="#3fb0ac"/><rect x="500.21" y="464.47" width="980.65" height="656.21" fill="#fff"/><path d="M1491.22,1130.41H493.07V456.7h998.15v673.7Zm-980.65-17.49h963.16V474.2H510.56v638.71Z" transform="translate(-1.6 -0.98)" fill="#3fb0ac"/><rect x="495.93" y="590.09" width="978.21" height="17.49" fill="#3fb0ac"/><path d="M1261.13,535.48c0,10.23-9.19,18.52-20.52,18.52H595.26c-11.34,0-20.52-8.29-20.52-18.52h0c0-10.23,9.19-18.52,20.52-18.52H1240.6c11.34,0,20.52,8.29,20.52,18.52h0Z" transform="translate(-1.6 -0.98)" fill="#3fb0ac"/><rect x="573.13" y="670.59" width="110.27" height="24.43" fill="#3fb0ac"/><rect x="705.73" y="670.59" width="161.47" height="24.43" fill="#3fb0ac"/><rect x="885.58" y="670.59" width="118.15" height="24.43" fill="#3fb0ac"/><rect x="1031.29" y="670.59" width="49.89" height="24.43" fill="#3fb0ac"/><rect x="1103.5" y="670.59" width="148.34" height="24.43" fill="#3fb0ac"/><rect x="573.13" y="737.52" width="60.39" height="24.43" fill="#3fb0ac"/><rect x="655.84" y="737.52" width="291.44" height="24.43" fill="#3fb0ac"/><rect x="969.59" y="737.52" width="126.02" height="24.43" fill="#3fb0ac"/><rect x="1115.31" y="737.52" width="86.64" height="24.43" fill="#3fb0ac"/><rect x="573.13" y="804.44" width="338.7" height="24.43" fill="#3fb0ac"/><rect x="932.84" y="804.44" width="70.89" height="24.43" fill="#3fb0ac"/><rect x="1022.1" y="804.44" width="229.74" height="24.43" fill="#3fb0ac"/><rect x="573.13" y="871.37" width="45.95" height="24.43" fill="#3fb0ac"/><rect x="641.4" y="871.37" width="143.09" height="24.43" fill="#3fb0ac"/><rect x="808.12" y="871.37" width="128.65" height="24.43" fill="#3fb0ac"/><rect x="956.46" y="871.37" width="295.38" height="24.43" fill="#3fb0ac"/><rect x="573.13" y="1005.22" width="110.27" height="24.43" fill="#3fb0ac"/><rect x="705.73" y="1005.22" width="59.08" height="24.43" fill="#3fb0ac"/><rect x="789.74" y="1005.22" width="98.46" height="24.43" fill="#3fb0ac"/><rect x="914.46" y="1005.22" width="230.39" height="24.43" fill="#3fb0ac"/><path d="M1923.26,525.27a48.69,48.69,0,0,1-48.69,48.68H1644.68A48.69,48.69,0,0,1,1596,525.27v-92a48.68,48.68,0,0,1,48.68-48.67h229.89a48.68,48.68,0,0,1,48.69,48.67v92Z" transform="translate(-1.6 -0.98)" fill="#fff"/><path d="M1874.58,582.7H1644.68a57.49,57.49,0,0,1-57.42-57.43v-92a57.49,57.49,0,0,1,57.42-57.42h229.89A57.49,57.49,0,0,1,1932,433.31v92A57.49,57.49,0,0,1,1874.58,582.7ZM1644.68,393.39a40,40,0,0,0-39.93,39.93v92a40,40,0,0,0,39.93,39.93h229.89a40,40,0,0,0,39.94-39.93v-92a40,40,0,0,0-39.94-39.93H1644.68Z" transform="translate(-1.6 -0.98)" fill="#3fb0ac"/><path d="M911,312.48a38.11,38.11,0,0,1-38.11,38.11h-180a38.12,38.12,0,0,1-38.12-38.11v-72a38.12,38.12,0,0,1,38.12-38.11h180A38.11,38.11,0,0,1,911,240.48v72Z" transform="translate(-1.6 -0.98)" fill="#fff"/><path d="M872.91,359.34h-180A46.91,46.91,0,0,1,646,312.48v-72a46.91,46.91,0,0,1,46.86-46.86h180a46.91,46.91,0,0,1,46.86,46.86v72A46.91,46.91,0,0,1,872.91,359.34Zm-180-148.23a29.4,29.4,0,0,0-29.37,29.36v72a29.4,29.4,0,0,0,29.37,29.37h180a29.4,29.4,0,0,0,29.37-29.37v-72a29.4,29.4,0,0,0-29.37-29.36h-180Z" transform="translate(-1.6 -0.98)" fill="#3fb0ac"/><path d="M1721.22,210.11H1280.67a114.64,114.64,0,0,0-108.82-78.6c-41.64,0-94.65,28.88-111.05,63.72h102.73l29.25,50.66-29.25,50.66H1060.81c13.67,36.08,69.41,64.21,111.05,64.21a114.64,114.64,0,0,0,108.82-78.6h440.55A36,36,0,1,0,1721.22,210.11Z" transform="translate(-1.6 -0.98)" fill="#fff"/><path d="M1171.86,369.51c-22.07,0-47.67-7.17-70.25-19.67-24.45-13.54-41.85-31.36-49-50.18l-4.49-11.85h110.35l24.2-41.92L1158.49,204H1047l5.87-12.47c8.59-18.25,26.23-35.59,49.68-48.82,22.43-12.66,47.69-19.92,69.29-19.92a123.14,123.14,0,0,1,115,78.6h434.4a44.77,44.77,0,1,1,0,89.54h-434.4A123.14,123.14,0,0,1,1171.86,369.51Zm-96.49-64.21c19,27.06,63.79,46.71,96.49,46.71a105.69,105.69,0,0,0,100.51-72.6l2-6h446.87a27.28,27.28,0,0,0,0-54.56H1274.36l-2-6a105.69,105.69,0,0,0-100.51-72.6c-34.07,0-75.32,20.8-95.3,46.23h92l34.3,59.41-34.3,59.41h-93.22Z" transform="translate(-1.6 -0.98)" fill="#3fb0ac"/><rect x="1874.49" y="215.55" width="244.31" height="17.49" fill="#3fb0ac"/><rect x="104.63" y="1374.41" width="120.34" height="17.49" fill="#3fb0ac"/><rect x="8.98" y="1429.96" width="166.62" height="17.49" fill="#3fb0ac"/><rect x="1804.06" y="287.56" width="197.48" height="17.49" fill="#3fb0ac"/><path d="M2022.1,1212.4h-17.49c0-174.88-131.11-319.13-305-335.54l1.64-17.42A354.59,354.59,0,0,1,2022.1,1212.4Z" transform="translate(-1.6 -0.98)" fill="#3fb0ac"/><path d="M1914.68,831.12a452.55,452.55,0,0,0-247.12-73,460.74,460.74,0,0,0-57.48,3.6l-2.19-17.36a478.26,478.26,0,0,1,59.67-3.74,470,470,0,0,1,256.65,75.85Z" transform="translate(-1.6 -0.98)" fill="#3fb0ac"/><path d="M1916,1263.26l-6.85-104.46-59.72,3.92a206.48,206.48,0,0,0-9.38-23.38l46-38.3-66.93-80.47-46.05,38.3a206.35,206.35,0,0,0-21.29-13.4l14.76-58.08-101.46-25.76-14.75,58.07c-4.17,0-8.37.14-12.57,0.42s-8.38.71-12.51,1.24l-22.21-55.66-97.22,38.79,22.2,55.66a207.34,207.34,0,0,0-19.36,16.06l-50.66-32-55.86,88.52,50.66,32a206.45,206.45,0,0,0-6.25,24.4l-59.72,3.92,6.85,104.46,59.71-3.92a206.76,206.76,0,0,0,9.38,23.37l-46.06,38.29,66.94,80.48,46-38.29a207.77,207.77,0,0,0,21.29,13.4l-14.75,58.08,101.46,25.76,14.76-58.07c4.17,0,8.35-.13,12.57-0.41s8.4-.72,12.53-1.23l22.2,55.65,97.22-38.79-22.21-55.66a207.59,207.59,0,0,0,19.38-16.06l50.64,32,55.86-88.53-50.65-32a206.45,206.45,0,0,0,6.25-24.4Zm-256.8,83.34a118.71,118.71,0,1,1,110.7-126.22A118.71,118.71,0,0,1,1659.19,1346.6Z" transform="translate(-1.6 -0.98)" fill="#d9efee"/><path d="M1644.05,1505.3l-118.41-30.06,15.27-60.11q-5.51-3.24-10.7-6.72L1482.56,1448l-78.13-93.93,47.66-39.62q-2.57-5.9-4.72-11.75l-61.81,4.05-8-121.91,61.8-4.05c0.91-4,2-8.1,3.16-12.27l-52.42-33.07,65.19-103.32,52.43,33.08q4.65-4.09,9.73-8.06l-23-57.59,113.47-45.27,23,57.58c2.19-.22,4.28-0.39,6.31-0.52s4.11-.24,6.3-0.31L1658.79,951l118.41,30.06-15.27,60.1q5.56,3.27,10.7,6.72l47.66-39.63,78.12,93.92-47.65,39.63q2.57,5.89,4.72,11.75l61.81-4.06,8,121.92-61.8,4c-0.91,4-2,8.14-3.15,12.26l52.41,33.07-65.2,103.33L1795.13,1391q-4.66,4.1-9.74,8.06l23,57.6L1694.9,1502l-23-57.58c-2.2.22-4.27,0.39-6.3,0.52s-4.1.23-6.31,0.3Zm-97.15-42.71,84.5,21.45,14.27-56.15,6.76,0c4.5,0,8.44-.16,12-0.39s7.45-.61,12-1.18l6.7-.83,21.46,53.8,81-32.3-21.48-53.82,5.45-4a199.62,199.62,0,0,0,18.56-15.38l4.93-4.64,49,30.91,46.53-73.74-49-30.9,2.06-6.45a198.73,198.73,0,0,0,6-23.36l1.26-6.66,57.75-3.78-5.7-87-57.75,3.79-2.12-6.43a199,199,0,0,0-9-22.39l-2.89-6.12,44.53-37-55.75-67-44.54,37-5.5-4a198.47,198.47,0,0,0-20.39-12.83l-5.92-3.26,14.27-56.15-84.5-21.45-14.26,56.14-6.76,0c-4.44,0-8.38.16-12,.4s-7.58.62-12,1.19l-6.72.86-21.49-53.84-81,32.31,21.47,53.81-5.45,4a199.73,199.73,0,0,0-18.54,15.38l-4.93,4.65-49-30.91L1414.23,1130l49,30.9-2.05,6.45a196.67,196.67,0,0,0-6,23.37l-1.26,6.66-57.75,3.79,5.7,87,57.75-3.79,2.12,6.43a199,199,0,0,0,9,22.38l2.88,6.12-44.54,37,55.75,67,44.53-37,5.5,4a200,200,0,0,0,20.4,12.83l5.93,3.26Zm104.4-107c-66.87,0-122.68-52.33-127.06-119.12A127.45,127.45,0,0,1,1643.09,1101c2.81-.18,5.65-0.28,8.46-0.28,66.88,0,122.69,52.33,127.07,119.13a127.45,127.45,0,0,1-118.85,135.51C1657,1355.51,1654.11,1355.61,1651.3,1355.61Zm0.25-237.43c-2.42,0-4.88.08-7.31,0.24a110,110,0,0,0-102.54,116.92c3.78,57.63,51.92,102.77,109.61,102.77,2.42,0,4.88-.08,7.31-0.24A110,110,0,0,0,1761.16,1221C1757.38,1163.32,1709.24,1118.18,1651.55,1118.18Z" transform="translate(-1.6 -0.98)" fill="#3fb0ac"/><path d="M372.36,450.9A48.08,48.08,0,0,1,324.28,499H97.21A48.08,48.08,0,0,1,49.12,450.9V360.07A48.08,48.08,0,0,1,97.21,312H324.28a48.08,48.08,0,0,1,48.08,48.08V450.9Z" transform="translate(-1.6 -0.98)" fill="#fff"/><path d="M324.28,507.73H97.21A56.9,56.9,0,0,1,40.37,450.9V360.07a56.9,56.9,0,0,1,56.84-56.83H324.28a56.89,56.89,0,0,1,56.83,56.83V450.9A56.89,56.89,0,0,1,324.28,507.73Zm-227.07-187a39.38,39.38,0,0,0-39.34,39.34V450.9a39.38,39.38,0,0,0,39.34,39.33H324.28a39.38,39.38,0,0,0,39.33-39.33V360.07a39.38,39.38,0,0,0-39.33-39.34H97.21Z" transform="translate(-1.6 -0.98)" fill="#3fb0ac"/><path d="M180.77,449.31l-65.62-34.42V395.84l65.62-34.26V384l-41.68,21.1L180.77,427v22.29Z" transform="translate(-1.6 -0.98)" fill="#3fb0ac"/><path d="M240.62,449.39V427.1l43.6-21.74-43.6-21.5V361.73L308.16,396v18.9Z" transform="translate(-1.6 -0.98)" fill="#3fb0ac"/><rect y="194" width="109" height="17" fill="#3fb0ac"/><rect x="189" width="17" height="109" fill="#3fb0ac"/><rect x="89.6" y="38.98" width="17" height="109" transform="translate(-38.97 95.77) rotate(-45)" fill="#3fb0ac"/><path d="M1675.3,457.11h18.4c11.9,0,17.62,5.2,17.62,13.46,0,7.6-4.29,12.42-10.33,14.11l8.32,18.92h-14.89l-6.89-15.93h-2.41l-2.47,15.93H1668Zm15.34,21.06c4,0,6.31-1.69,6.31-5.66,0-2.92-1.75-4.35-5.27-4.35h-3.45l-1.62,10h4Z" transform="translate(-1.6 -0.98)" fill="#3fb0ac"/><path d="M1715.66,483.24l4.22-26.13h14.69l-4.22,26.59c-1,6.11.58,9.17,5.66,9.17s6.37-2.86,7.28-8.39l4.35-27.37h14.82l-4.55,28.54c-2,13-9,18.79-22.17,18.79C1721.32,504.44,1713.39,497.35,1715.66,483.24Z" transform="translate(-1.6 -0.98)" fill="#3fb0ac"/><path d="M1770.59,457.11h19.83c11,0,15.08,5,15.08,11.44,0,6.11-3.9,9.88-9.1,11.05,4.62,1,8.06,4.1,8.06,9.69,0,8.58-7.09,14.3-18.14,14.3h-23.08ZM1784,493.9c3.9,0,6.17-2.27,6.17-5.52,0-2.86-1.69-4.36-5.52-4.36h-4l-1.56,9.88H1784Zm2.6-18.66c3.71,0,5.46-1.69,5.46-4.75,0-2.67-1.56-3.77-4.62-3.77h-4.1l-1.36,8.52h4.61Z" transform="translate(-1.6 -0.98)" fill="#3fb0ac"/><path d="M1819.34,483.7l-10.79-26.59h15.28l5,14.37,9.29-14.37h14.69l-18.72,27.37-3,19.11h-14.82Z" transform="translate(-1.6 -0.98)" fill="#3fb0ac"/><path d="M713.32,251.3h16.58l9.17,24.18,3.83-24.18H756l-7.34,46.48H734.51l-11.12-27.5-4.29,27.5H706Z" transform="translate(-1.6 -0.98)" fill="#3fb0ac"/><path d="M764.47,251.3h17.42c11.57,0,17.68,5.27,17.75,13.52,0,11.57-7.67,17.81-19.83,17.81h-5.53l-2.4,15.15H757.13Zm14.69,21.45c4.16,0,6.5-2.15,6.5-6.24,0-2.79-1.75-4.36-5.4-4.36h-2.86l-1.62,10.6h3.38Z" transform="translate(-1.6 -0.98)" fill="#3fb0ac"/><path d="M807.63,251.3h18.53l4.35,22.49,11.57-22.49h19.24L854,297.78H839.35l4.36-27.56-15,27.56h-4.94l-6-27.56-4.35,27.56H800.29Z" transform="translate(-1.6 -0.98)" fill="#3fb0ac"/><rect x="802.09" y="1165.7" width="521.29" height="148.54" rx="36" ry="36" fill="#fff" stroke="#3fb0ac" stroke-miterlimit="10" stroke-width="23"/><path d="M871.09,1243.62c0-16.06,9.75-27.56,26.2-27.56,12.61,0,20.54,6,21,18.33H903.47c-0.39-4.36-2.28-6.83-6.57-6.83-7,0-10.34,7.15-10.4,15.41-0.07,5.26,2,9.49,7.74,9.49,4.09,0,7.08-2.28,8.32-7h14.63c-1.82,12.48-11.5,18.66-23.08,18.66C880.2,1264.1,871.09,1257.21,871.09,1243.62Z" transform="translate(-1.6 -0.98)" fill="#3fb0ac"/><path d="M943.7,1264.1c-12.29,0-22.69-7.09-22.69-20.35,0-16.32,11-27.69,26.85-27.69,12.74,0,23.21,7,23.21,20.54C971.07,1252.92,960.15,1264.1,943.7,1264.1Zm3.71-36.53c-7.41-.06-11.12,7.67-11.12,15.67,0,5.4,2.67,9.29,8.45,9.29,7.54,0,11-7.67,11-15.41C955.73,1231.86,953.32,1227.7,947.41,1227.57Z" transform="translate(-1.6 -0.98)" fill="#3fb0ac"/><path d="M980.55,1216.78h18.53l4.35,22.49,11.57-22.49h19.24l-7.34,46.48h-14.63l4.36-27.56-15,27.56h-4.94l-6-27.56-4.35,27.56H973.21Z" transform="translate(-1.6 -0.98)" fill="#3fb0ac"/><path d="M1042.76,1216.78h17.42c11.57,0,17.68,5.27,17.75,13.52,0,11.57-7.67,17.81-19.83,17.81h-5.53l-2.4,15.15h-14.76Zm14.69,21.45c4.16,0,6.5-2.15,6.5-6.24,0-2.79-1.75-4.36-5.4-4.36h-2.86l-1.62,10.6h3.38Z" transform="translate(-1.6 -0.98)" fill="#3fb0ac"/><path d="M1103,1264.1c-12.29,0-22.69-7.09-22.69-20.35,0-16.32,11-27.69,26.85-27.69,12.74,0,23.21,7,23.21,20.54C1130.38,1252.92,1119.46,1264.1,1103,1264.1Zm3.71-36.53c-7.41-.06-11.12,7.67-11.12,15.67,0,5.4,2.67,9.29,8.45,9.29,7.54,0,11-7.67,11-15.41C1115,1231.86,1112.63,1227.7,1106.72,1227.57Z" transform="translate(-1.6 -0.98)" fill="#3fb0ac"/><path d="M1131.87,1248.37h13.78c0.13,2.86,1.75,5.33,6.5,5.33,3.51,0.06,5.27-1.37,5.27-4,0-1.88-1.56-2.92-6-3.77-11.57-2.34-15.73-6.18-15.73-14,0-9,7-15.86,19.24-15.86,11.31,0,18.2,4.55,18.07,14.82h-13.46c-0.2-3.06-2-4.49-5-4.49s-4.62,1.37-4.62,3.51c0,2,1.37,2.79,5.92,3.71,10.53,2.08,16,5.66,16,13.85,0,9.75-7,16.45-20,16.58C1139.09,1264.1,1131.74,1258.44,1131.87,1248.37Z" transform="translate(-1.6 -0.98)" fill="#3fb0ac"/><path d="M1182.5,1216.78h33l-1.76,11.31h-18.33l-1,6.57h14.56l-1.56,10.27h-14.56l-1.17,7H1211l-1.75,11.31h-34.06Z" transform="translate(-1.6 -0.98)" fill="#3fb0ac"/><path d="M1222.87,1216.78h18.4c11.9,0,17.62,5.2,17.62,13.46,0,7.6-4.29,12.42-10.33,14.11l8.32,18.92H1242l-6.89-15.93h-2.41l-2.47,15.93h-14.69Zm15.34,21.06c4,0,6.31-1.69,6.31-5.66,0-2.92-1.75-4.35-5.27-4.35h-3.45l-1.62,10h4Z" transform="translate(-1.6 -0.98)" fill="#3fb0ac"/></svg>