<svg id="Layer_1" data-name="Layer 1" xmlns="http://www.w3.org/2000/svg" width="561.8" height="499.86" viewBox="0 0 561.8 499.86"><title>react</title><path id="dot" d="M334.7,254.63a50.17,50.17,0,1,1-50.17-50.17A50.17,50.17,0,0,1,334.7,254.63Z" transform="translate(-3.63 -5.21)" fill="#00d8ff"/><path d="M284.53,369.63c-70.46,0-132.07-8.33-178.17-24.08C76.43,335.31,51.06,321.72,33,306.25,13.78,289.8,3.63,272,3.63,254.63c0-33.17,36.44-65.67,97.46-86.95,50-17.45,115.19-27.05,183.44-27.05,67,0,131.26,9.43,181,26.56,29.09,10,53.64,23,71,37.44,18.9,15.77,28.89,33.06,28.89,50,0,34.48-40.74,69.39-106.31,91.12C412.64,361.15,350.64,369.63,284.53,369.63Zm0-205c-64.68,0-128.66,9.37-175.54,25.72-40.5,14.12-81.37,39.47-81.37,64.28,0,10,7.45,21.81,21,33.39,15.78,13.52,38.44,25.55,65.52,34.81,43.63,14.91,102.56,22.79,170.41,22.79,63.61,0,122.94-8,167-22.66,61.74-20.46,89.86-49.76,89.86-68.34,0-9.45-7.2-20.66-20.27-31.57C506,210.43,484.09,199,457.73,189.88,410.43,173.6,348.92,164.63,284.53,164.63Z" transform="translate(-3.63 -5.21)" fill="#00d8ff"/><path d="M170.57,504.8c-10.16,0-19.19-2.19-26.8-6.58-28.73-16.57-38.68-64.37-26.63-127.87,9.89-52.06,34.11-113.3,68.2-172.42h0c33.46-58,73.74-109,113.44-143.54,23.21-20.2,46.69-35,67.91-42.79,23.1-8.5,43.07-8.51,57.74-.05,29.87,17.22,39.76,70,25.83,137.61-9.88,48-33.51,105.91-66.53,163.17-35.2,61-73.2,110.25-109.88,142.31-23.81,20.82-48.26,36-70.69,43.93C191.4,502.72,180.45,504.8,170.57,504.8Zm35.56-294.88c-32.31,56-56.15,116.14-65.42,164.91-8,42.14-6.45,90.2,15,102.6,16.12,9.3,55,.48,102.29-40.85,34.72-30.34,71-77.45,104.88-136.23,31.78-55.1,54.44-110.52,63.82-156,6-29.12,7.33-55.53,3.84-76.37-3-17.94-9.45-30.59-18.15-35.61-8.19-4.72-21.49-4.09-37.47,1.79-18.51,6.8-39.4,20.07-60.43,38.37-37.74,32.84-76.24,81.65-108.4,137.42h0Z" transform="translate(-3.63 -5.21)" fill="#00d8ff"/><path d="M398.43,505.07c-27.19,0-61.73-16.45-97.67-47.38-40.17-34.56-81.12-86.13-115.32-145.2h0c-33.56-58-57.6-118.32-67.7-170-5.91-30.19-7-57.93-3.16-80.2,4.18-24.26,14.14-41.57,28.79-50.05C173.2-5,223.83,12.76,275.48,58.63c36.61,32.51,75,81.92,108.14,139.13,35.3,61,59,118.47,68.42,166.26,6.14,31,7.09,59.79,2.75,83.18-4.61,24.86-15,42.59-30,51.27C417.19,502.91,408.29,505.07,398.43,505.07ZM206.21,300.47c32.41,56,72.57,106.65,110.2,139,32.51,28,74.93,50.64,96.4,38.21,16.11-9.32,27.89-47.42,15.69-109-9-45.23-31.66-100.18-65.65-158.9C331,154.73,294.29,107.43,259.55,76.57,237.31,56.83,215.1,42.49,195.3,35.1c-17-6.36-31.22-7.09-39.91-2.06-8.18,4.73-14.27,16.58-17.17,33.36-3.35,19.43-2.29,44.16,3.07,71.52,9.61,49.1,32.66,106.82,64.92,162.55h0Z" transform="translate(-3.63 -5.21)" fill="#00d8ff"/></svg>