<svg id="Layer_1" data-name="Layer 1" xmlns="http://www.w3.org/2000/svg" width="561.8" height="499.8" viewBox="0 0 561.8 499.8"><title>react</title><path id="dot" d="M334.7,254.63a50.17,50.17,0,1,1-50.17-50.17A50.17,50.17,0,0,1,334.7,254.63Z" transform="translate(-3.63 -5.2)" fill="#00d8ff"/><path id="middle" d="M284.53,152.63c67.36,0,129.93,9.66,177.11,25.91,56.84,19.57,91.79,49.23,91.79,76.09,0,28-37,59.5-98.08,79.73-46.15,15.29-106.88,23.27-170.82,23.27-65.55,0-127.63-7.49-174.29-23.44-59-20.18-94.61-52.1-94.61-79.56C15.63,228,49,198.55,105,179,152.4,162.5,216.51,152.63,284.53,152.63Z" transform="translate(-3.63 -5.2)" fill-opacity="0" stroke="#00d8ff" stroke-miterlimit="10" stroke-width="24"/><path id="right" d="M195.74,203.92C229.38,145.57,269,96.2,306.66,63.44,352,24,395.16,8.52,418.43,21.94c24.25,14,33,61.81,20.07,124.8-9.81,47.62-33.23,104.21-65.18,159.6-32.75,56.79-70.25,106.82-107.38,139.27-47,41.07-92.4,55.93-116.19,42.21-23.08-13.31-31.91-56.92-20.83-115.23C138.28,323.32,161.76,262.84,195.74,203.92Z" transform="translate(-3.63 -5.2)" fill-opacity="0" stroke="#00d8ff" stroke-miterlimit="10" stroke-width="24"/><path id="left" d="M195.82,306.48c-33.75-58.29-56.73-117.29-66.31-166.25-11.54-59-3.38-104.11,19.86-117.57,24.22-14,70.05,2.24,118.14,44.94,36.36,32.28,73.69,80.84,105.72,136.17,32.84,56.73,57.46,114.21,67,162.58,12.12,61.21,2.31,108-21.45,121.74-23.06,13.35-65.25-.78-110.24-39.5C270.57,415.89,229.9,365.34,195.82,306.48Z" transform="translate(-3.63 -5.2)" fill-opacity="0" stroke="#00d8ff" stroke-miterlimit="10" stroke-width="24"/></svg>