<svg id="Layer_1" data-name="Layer 1" xmlns="http://www.w3.org/2000/svg" width="570" height="510" viewBox="0 0 570 510"><title>react</title><path id="dot" d="M335.17,254.49A50.17,50.17,0,1,1,285,204.32h0A50.17,50.17,0,0,1,335.17,254.49Z" fill="#00d8ff"/><path d="M285,369.49c-70.46,0-132.07-8.33-178.17-24.08-29.93-10.24-55.3-23.83-73.36-39.3C14.25,289.66,4.1,271.86,4.1,254.49c0-33.17,36.44-65.67,97.46-86.95,50-17.45,115.19-27.05,183.44-27.05,67,0,131.26,9.43,181,26.56,29.09,10,53.64,23,71,37.44,18.9,15.77,28.89,33.06,28.89,50,0,34.48-40.74,69.39-106.31,91.12C413.11,361,351.11,369.49,285,369.49Zm0-205c-64.68,0-128.66,9.37-175.54,25.72C69,204.33,28.09,229.68,28.09,254.49c0,10,7.45,21.81,21,33.39,15.78,13.52,38.44,25.55,65.52,34.81C158.24,337.6,217.17,345.48,285,345.48c63.61,0,122.94-8,167-22.66,61.74-20.46,89.86-49.76,89.86-68.34,0-9.45-7.2-20.66-20.27-31.57-15.14-12.62-37-24.05-63.41-33.17C410.9,173.46,349.39,164.49,285,164.49Z" fill="#00d8ff"/><path d="M171,504.66c-10.16,0-19.19-2.19-26.8-6.58-28.73-16.57-38.68-64.37-26.63-127.87,9.89-52.06,34.11-113.3,68.2-172.42h0c33.46-58,73.74-109,113.44-143.54,23.21-20.2,46.69-35,67.91-42.79C390.26,3,410.23,3,424.9,11.41c29.87,17.22,39.76,70,25.83,137.61-9.88,48-33.51,105.91-66.53,163.17C349,373.19,311,422.44,274.32,454.5c-23.81,20.82-48.26,36-70.69,43.93C191.87,502.58,180.92,504.66,171,504.66ZM206.6,209.78c-32.31,56-56.15,116.14-65.42,164.91-8,42.14-6.45,90.2,15,102.6,16.12,9.3,55,.48,102.29-40.85,34.72-30.34,71-77.45,104.88-136.23,31.78-55.1,54.44-110.52,63.82-156,6-29.12,7.33-55.53,3.84-76.37-3-17.94-9.45-30.59-18.15-35.61-8.19-4.72-21.49-4.09-37.47,1.79C356.88,40.82,336,54.09,315,72.39c-37.74,32.84-76.24,81.65-108.4,137.42h0Z" fill="#00d8ff"/><path d="M398.9,504.93c-27.19,0-61.73-16.45-97.67-47.38-40.17-34.56-81.12-86.13-115.32-145.2h0c-33.56-58-57.6-118.32-67.7-170-5.91-30.19-7-57.93-3.16-80.2,4.18-24.26,14.14-41.57,28.79-50C173.67-5.14,224.3,12.62,276,58.49,312.56,91,351,140.41,384.09,197.62c35.3,61,59,118.47,68.42,166.26,6.14,31,7.09,59.79,2.75,83.18-4.61,24.86-15,42.59-30,51.27C417.66,502.77,408.76,504.93,398.9,504.93ZM206.68,300.33c32.41,56,72.57,106.65,110.2,139,32.51,28,74.93,50.64,96.4,38.21,16.11-9.32,27.89-47.42,15.69-109-9-45.23-31.66-100.18-65.65-158.9C331.47,154.59,294.76,107.29,260,76.43,237.78,56.69,215.57,42.35,195.77,35c-17-6.36-31.22-7.09-39.91-2.06-8.18,4.73-14.27,16.58-17.17,33.36-3.35,19.43-2.29,44.16,3.07,71.52,9.61,49.1,32.66,106.82,64.92,162.55h0Z" fill="#00d8ff"/></svg>