<svg id="Layer_2" data-name="Layer 2" xmlns="http://www.w3.org/2000/svg" viewBox="0 0 561.8 499.86"><title>react</title><circle cx="280.9" cy="249.42" r="50.17" fill="#00d8ff"/><path d="M282,365.49c-70.46,0-132.07-8.33-178.17-24.09-29.93-10.23-55.3-23.82-73.37-39.29C11.25,285.66,1.1,267.81,1.1,250.49c0-33.17,36.44-65.67,97.46-86.95,50-17.45,115.19-27.05,183.44-27.05,67,0,131.26,9.43,181,26.56,29.09,10,53.64,23,71,37.44,18.9,15.77,28.89,33.06,28.89,50,0,34.48-40.74,69.39-106.31,91.12C410.11,357,348.11,365.49,282,365.49Zm0-205c-64.68,0-128.66,9.37-175.54,25.72C66,200.32,25.1,225.68,25.1,250.49c0,10,7.45,21.81,21,33.39,15.78,13.52,38.44,25.55,65.52,34.81,43.63,14.91,102.56,22.8,170.41,22.8,63.61,0,122.93-8,167-22.66,61.74-20.46,89.86-49.76,89.86-68.34,0-9.45-7.2-20.66-20.27-31.57-15.14-12.63-37.07-24.11-63.43-33.18C407.9,169.46,346.39,160.49,282,160.49Z" transform="translate(-1.1 -1.07)" fill="#00d8ff"/><path d="M168,500.66c-10.16,0-19.19-2.19-26.8-6.58-28.73-16.57-38.68-64.37-26.63-127.87,9.89-52.06,34.11-113.3,68.2-172.42h0c33.46-58,73.74-109,113.44-143.54,23.21-20.2,46.69-35,67.91-42.79,23.1-8.5,43.07-8.51,57.74-.05,29.87,17.22,39.76,70,25.83,137.61-9.88,48-33.51,105.91-66.53,163.17C346,369.23,308,418.44,271.31,450.5c-23.81,20.82-48.26,36-70.69,43.93C188.87,498.58,177.92,500.66,168,500.66ZM203.6,205.78c-32.31,56-56.15,116.14-65.42,164.91-8,42.14-6.45,90.2,15,102.6,16.12,9.3,55,.48,102.29-40.85,34.72-30.34,71-77.45,104.88-136.23,31.78-55.1,54.44-110.52,63.82-156,6-29.12,7.33-55.53,3.84-76.37-3-17.94-9.45-30.59-18.15-35.61-8.19-4.72-21.49-4.09-37.47,1.79C353.93,36.78,333,50.05,312,68.35,274.27,101.2,235.77,150,203.6,205.78h0Z" transform="translate(-1.1 -1.07)" fill="#00d8ff"/><path d="M395.9,500.93c-27.19,0-61.73-16.45-97.67-47.38C258.06,419,217.1,367.42,182.91,308.35h0c-33.56-58-57.6-118.32-67.7-170-5.91-30.19-7-57.93-3.16-80.2,4.18-24.26,14.14-41.57,28.79-50.05C170.67-9.14,221.3,8.62,273,54.49,309.57,87,348,136.41,381.09,193.62c35.3,61,59,118.47,68.42,166.26,6.14,31,7.09,59.79,2.75,83.18-4.61,24.86-15,42.59-30,51.27C414.66,498.76,405.76,500.93,395.9,500.93ZM203.68,296.33c32.41,56,72.57,106.65,110.2,139,32.51,28,74.93,50.64,96.4,38.21,16.11-9.32,27.89-47.42,15.69-109-9-45.23-31.66-100.18-65.65-158.9C328.45,150.59,291.76,103.28,257,72.43,234.79,52.69,212.57,38.35,192.77,31c-17-6.36-31.22-7.09-39.91-2.06-8.18,4.73-14.27,16.58-17.17,33.36-3.35,19.43-2.29,44.16,3.07,71.52,9.61,49.1,32.66,106.82,64.92,162.55h0Z" transform="translate(-1.1 -1.07)" fill="#00d8ff"/></svg>
