<svg id="Layer_1" data-name="Layer 1" xmlns="http://www.w3.org/2000/svg" width="96.23" height="97.68" viewBox="0 0 96.23 97.68"><title>release</title><path d="M90.13,46.39L65.66,60.52V77.25L90.13,63.12V46.39Zm0-13.11-6.26,3.61v9l6.26-3.61v-9Zm5.16-9.46L54.47,0.25a1.88,1.88,0,0,0-1.88,0L0.94,30.07A1.89,1.89,0,0,0,0,31.7V72.23a1.88,1.88,0,0,0,.94,1.63L41.76,97.43a1.89,1.89,0,0,0,1.89,0L95.28,67.61A1.89,1.89,0,0,0,96.22,66V25.45A1.88,1.88,0,0,0,95.28,23.82ZM40.42,93.39L3.55,72.1,16.2,61.87l5.25,10.31a1,1,0,0,0,.64.49l0.2,0a0.94,0.94,0,0,0,.59-0.21l4.88-3.94ZM40.25,56L22.6,70.3,5,35.65ZM15.32,60.16L3.77,69.49v-32Zm13.94,7.18L40.82,58V90ZM90.57,25.45L42.7,53.09,5.66,31.7,53.53,4.06Zm-46,67.08V56.35L92.46,28.72V64.89Z"/></svg>