<svg id="Layer_1" data-name="Layer 1" xmlns="http://www.w3.org/2000/svg" width="90.3" height="96.09" viewBox="0 0 90.3 96.09"><title>network</title><path d="M88.89,74.59A19.18,19.18,0,0,0,55.31,56.07L25.14,41a12.23,12.23,0,0,0-.83-7.71L37.63,21.66a11.38,11.38,0,1,0-2.8-2.8L22.08,30a12.32,12.32,0,1,0,1.58,14.7l30.1,15a19.07,19.07,0,0,0,.36,12.38L37.47,78.85A11.91,11.91,0,1,0,39,82.51l16.89-6.89a19.16,19.16,0,0,0,26.42,6l0.58-.38A18.88,18.88,0,0,0,88.89,74.59Z" transform="translate(-0.76 -0.95)" fill="#223b4c"/></svg>