<?xml version="1.0" encoding="utf-8"?>
<!-- Generator: Adobe Illustrator 19.0.0, SVG Export Plug-In . SVG Version: 6.00 Build 0)  -->
<svg version="1.1" id="Layer_1" xmlns="http://www.w3.org/2000/svg" xmlns:xlink="http://www.w3.org/1999/xlink" x="0px" y="0px"
	 width="431.6px" height="224px" viewBox="0 0 431.6 224" enable-background="new 0 0 431.6 224" xml:space="preserve">
<g id="XMLID_3_">
	<path fill="none" stroke="#223B4C" stroke-width="2" stroke-linecap="round" stroke-linejoin="round" stroke-miterlimit="10" d="
		M233.2,214.5c-4.1-0.5-8.1-0.7-12.2-0.8c-7.9-0.2-15.7-0.1-23.6,0.3c-2.7,0.1-5.4,0-8.2,0.1c-5.1,0.2-10.3,0.3-15.4,0.5
		c-2.7,0.1-5.5,0.2-8.2,0.3c-4.7,0.2-9.5,0.4-14.2,0.5c-4.8,0.2-9.6,0.2-14.4,0.6c-4.5,0.4-9,0.5-13.5,0.7
		c-4.4,0.2-8.8,0.2-13.2,0.5c-4.5,0.3-9,0.7-13.5,1.1c-3.6,0.3-7.2,0.9-10.8,1.1c-2.5,0.1-5.1,0.5-7.5,1.1c-1.4,0.4-2.9,0-4.2,0.9"
		/>
	<path fill="none" stroke="#223B4C" stroke-width="2" stroke-linecap="round" stroke-linejoin="round" stroke-miterlimit="10" d="
		M239,74.5c-1.5-0.5-3-0.4-4.6-0.2c-4.2,0.6-8.4,0.3-12.5,0.5c-4,0.2-7.9,0.8-11.8,1.1c-6.8,0.6-13.5,1.4-20.3,1.7
		c-5.8,0.2-11.6,0.2-17.3,0.9c-4.7,0.6-9.3,1.2-14,1.7c-6.5,0.7-12.9,2.2-19.4,2.9c-6.5,0.7-13.1,0.7-19.7,0.1
		c-8.5-0.8-16.9,0.3-25.3,1c-7.2,0.6-14.2,2.2-21.5,2.2c-0.9,0-1.8,0-2.6,0.1"/>
	<path fill="none" stroke="#223B4C" stroke-width="2" stroke-linecap="round" stroke-linejoin="round" stroke-miterlimit="10" d="
		M239.5,214.3c0.5-0.5,0.4-1.2,0.3-1.6c-1.5-3.7-1.5-7.5-1.9-11.4c-1.1-11.3-0.6-22.6,0.3-33.9c0.4-4.8,1.2-9.6,1-14.4
		c-0.3-7.7,0.6-15.4,0.3-23.1c-0.1-3.5,0.9-7.3,0.7-10.8c-0.3-6.4,0.8-12.6,0.2-19c-0.3-3.2,0-6.6,0-9.8c0-4.6-0.2-9.2-0.5-13.7
		c-0.7-10.3-1.3-20.5-0.4-30.8c0.3-3.5,0.8-7,0-10.8c-6.5-0.1-13.1-0.2-19.7,0.2c-2.8,0.2-5.6,0.1-8.4,0c-4.3-0.1-8.7,0-13,0.1
		c-7.5,0.2-14.9,0.1-22.4,0.6c-5.5,0.4-11.1,0.6-16.6,0.9c-5.2,0.3-10.3,0.8-15.5,1.5c-4.7,0.6-9.5,0.9-14.2,1.4
		c-7.1,0.9-14.2,1.6-21.3,2.7c-3.5,0.5-7.1,0.7-10.6,1.1c-4.4,0.5-8.7,1.2-13.1,1.6c-5.1,0.5-10.1,1.8-15.2,1.8"/>
	<path fill="none" stroke="#223B4C" stroke-width="2" stroke-linecap="round" stroke-linejoin="round" stroke-miterlimit="10" d="
		M67,48.7c0,2.7,0,5.5-0.2,8.2c-0.7,9.2-0.5,18.4-0.6,27.6c-0.1,5.5,0.2,11.1,0.9,16.6c0.3,2.4,0.3,5,0.2,7.4
		c0,8.2,0.1,16.3,0.3,24.5c0,1.6-0.1,3.2-0.2,4.8c-0.7,11.8-0.7,23.5-0.7,35.3c0,4.8,1.5,9.3,2,14c1,9.7,2.2,19.4,3.9,29
		c0.2,1.2-0.6,2.2-1,3.3c-0.4,1-0.1,1.9,1.3,1.2"/>
	<path fill="none" stroke="#223B4C" stroke-width="2" stroke-linecap="round" stroke-linejoin="round" stroke-miterlimit="10" d="
		M174.7,185.4c-1.5-1.2-3.3-1-5-0.9c-5.5,0.5-11.1,0.5-16.6,0.8c-7.4,0.4-14.8,0.4-22.1,1c-6.9,0.5-13.9,0.9-20.8,2
		c-2.4,0.4-4.8,0.4-7.2,1"/>
	<path fill="none" stroke="#223B4C" stroke-width="2" stroke-linecap="round" stroke-linejoin="round" stroke-miterlimit="10" d="
		M239.3,36.5c-5.9,0.3-11.8,1.5-17.8,0.9c-8.6-0.9-17.3-0.2-25.9,0.1c-5.7,0.2-11.5,1.2-17.2,2.1c-4.5,0.8-9.1,0.6-13.7,0.9
		c-6.7,0.5-13.2,1.9-19.9,2.8c-2.7,0.4-5.6,0.6-8.4,0.7c-7.2,0.3-14.5,0.3-21.7,1.5c-5.4,0.9-10.9,1.9-16.4,2.3
		c-1.4,0.1-2.9,0.1-4.3,0.1c-1.8,0.1-3.7-0.3-5.3,0.4c-3.6,1.4-7.3,0.1-10.9,0.9c-3.4,0.8-7,0.1-10.4,1"/>
	<path fill="none" stroke="#223B4C" stroke-width="2" stroke-linecap="round" stroke-linejoin="round" stroke-miterlimit="10" d="
		M142.6,116.4c-2.9-0.1-5.8-0.4-8.6-0.4c-7.1,0.1-14.3,0.3-21.4,0.7c-7.9,0.5-15.8,0.7-23.7,1.9c-2.1,0.3-4.3,0.5-6.5,0.7
		c-0.9,0.1-1.6,0.2-2,1.1"/>
	<path fill="none" stroke="#223B4C" stroke-width="2" stroke-linecap="round" stroke-linejoin="round" stroke-miterlimit="10" d="
		M169.3,90.9c-8.8-0.1-17.5,0.5-26.2,1.1c-8.1,0.6-16,2-24.1,2.3c-0.9,0-1.7,0.8-2.6,0.1"/>
	<path fill="none" stroke="#223B4C" stroke-width="2" stroke-linecap="round" stroke-linejoin="round" stroke-miterlimit="10" d="
		M159,208.9c-3.8-0.1-7.7-0.5-11.5-0.2c-3.1,0.3-6.3,0.5-9.4,0.6c-6.1,0.2-12.1,1.1-18.1,1.9c-3.2,0.4-6.4,0.6-9.4,1.4"/>
	<path fill="none" stroke="#223B4C" stroke-width="2" stroke-linecap="round" stroke-linejoin="round" stroke-miterlimit="10" d="
		M99.3,129c6.8-1.1,13.7-0.8,20.4-1.8c1-1.7-0.1-3.1,0-4.8c-10.3,0.7-20.4,0.1-30.5,0.6c-1.7,0.1-3.5-0.1-5.3-0.2
		c-1-0.1-1.6,0.1-2.1,1.3c-0.8,2.1-1.1,4.3-1.4,6.4"/>
	<path fill="none" stroke="#223B4C" stroke-width="2" stroke-linecap="round" stroke-linejoin="round" stroke-miterlimit="10" d="
		M192.9,146.1c1.1-3,3.2-5.3,5.2-7.6c6.8-8,13.8-15.7,20.8-23.6c3.3-3.7,6.4-7.7,10.1-11.1c0.6-0.6-0.8-1.4,0.5-1.8
		c-3.5-1.3-6.8-0.2-10,0.3c-6.2,0.8-12.4,2.2-18.5,3.8c-4.2,1.1-8.2,2.5-12.2,4.2c-0.5,0.2-1.3,0.3-1.2,1.1
		c0.3,3.4,0.3,6.8,0.6,10.1c0.3,3.4,0.5,6.9,0.6,10.3c0.2,3.6,0.2,7.1,1,10.6c0.3,1.2,0.1,2.4,0.1,3.6"/>
	<path fill="none" stroke="#223B4C" stroke-width="2" stroke-linecap="round" stroke-linejoin="round" stroke-miterlimit="10" d="
		M165.8,203.2c-0.1-0.9-0.8-0.7-1.4-0.8c-3.1-0.3-6.2-0.4-9.3-0.8c-5-0.6-10.1,0-15.1,0.3c-2.2,0.2-4.5,0-6.7,0.1
		c-6.4,0.4-12.9,0.8-19.3,1.5c-2.6,0.3-5.4,0.4-7.9,0.8c-3.8,0.7-7.4,2-11,3.5"/>
	<path fill="none" stroke="#223B4C" stroke-width="2" stroke-linecap="round" stroke-linejoin="round" stroke-miterlimit="10" d="
		M166,192.4c-3.8-0.9-7.7-0.1-11.5,0c-8.2,0.3-16.4,1.2-24.6,1.5c-2.9,0.1-5.9-0.5-8.7,0.7"/>
	<path fill="none" stroke="#223B4C" stroke-width="2" stroke-linecap="round" stroke-linejoin="round" stroke-miterlimit="10" d="
		M83.5,55.7c-2.1,2.7-3.9,5.5-4.1,9.2c-0.1,2.9,0.2,4.5,2.4,5.9c1.7,1,4.1,0.7,6-0.7c5.1-3.6,6.5-8.5,5.7-14.4"/>
	<path fill="none" stroke="#223B4C" stroke-width="2" stroke-linecap="round" stroke-linejoin="round" stroke-miterlimit="10" d="
		M141.2,115.8c-0.1-2.4-0.5-4.7-1.2-7.3c-20.9,0.3-41.8,1.2-62.6,3.6c0.8,2.3,0.2,4.5,0.2,6.8"/>
	<path fill="none" stroke="#223B4C" stroke-width="2" stroke-linecap="round" stroke-linejoin="round" stroke-miterlimit="10" d="
		M233.9,54.5c-0.1,0.1,0.2,0.6-0.3,0.5c-4.2-0.9-8.4,0.2-12.5,0.7c-5.1,0.6-10.1,1.6-15.2,1.4c-0.9,0-1.8-0.4-2.5,0.7
		c1.8,1-0.3,2.8,0.8,4"/>
	<path fill="none" stroke="#223B4C" stroke-width="2" stroke-linecap="round" stroke-linejoin="round" stroke-miterlimit="10" d="
		M233.2,137.1c0.4-0.5,0.4-1.1,0.3-1.7c-1.4-8.9-2.4-17.8-2.9-26.8c-0.1-1.5-0.1-3.1-1.2-4.4"/>
	<path fill="none" stroke="#223B4C" stroke-width="2" stroke-linecap="round" stroke-linejoin="round" stroke-miterlimit="10" d="
		M125,195.8c-1.5,0.3-2.9,0.3-4.3-0.2c-1.4-0.5-2.9-0.5-4.3-0.4c-4.3,0.3-8.7,0.1-13,0.6c-3.4,0.4-6.7,0.9-10.1,0.9"/>
	<path fill="none" stroke="#223B4C" stroke-width="2" stroke-linecap="round" stroke-linejoin="round" stroke-miterlimit="10" d="
		M226.4,144c-6.8-0.2-13.2,2-19.6,3.9c-3,0.9-5.9,1.9-8.6,3.4c-1.5,0.8-3.1,1.4-4.9,1.5"/>
	<path fill="none" stroke="#223B4C" stroke-width="2" stroke-linecap="round" stroke-linejoin="round" stroke-miterlimit="10" d="
		M227.3,191.9c-0.7-1.7-1.5-3.3-2.4-4.9c-1.8-3.7-5-3.8-8.3-3.7c-4.7,0.1-9.5,0.2-14.2,0.7c-5.5,0.6-11.1,0.4-16.6,1.2"/>
	<path fill="none" stroke="#223B4C" stroke-width="2" stroke-linecap="round" stroke-linejoin="round" stroke-miterlimit="10" d="
		M202,65.3c7.5-1.7,15-2.7,22.7-2.9c1.7,0,3.8,0.8,4.9-0.3c1.1-1,2.2-0.9,3.7-1c-0.6-2.2,0.9-3.9,0.6-5.9"/>
	<path fill="none" stroke="#223B4C" stroke-width="2" stroke-linecap="round" stroke-linejoin="round" stroke-miterlimit="10" d="
		M203.7,53.6c9-2.2,18-4.5,27.4-4.1c0.5-1.9,0.8-3.8,1.4-5.6c0.4-1.1-0.1-2-1.5-2c-3.4,0.1-6.8,0.6-10.1,0.6c-5,0-9.8,1.3-14.7,1.1
		c-1.3-0.1-2.4,0.4-3.5,1c0.6,1.7,0.7,3.4,0.8,5.1"/>
	<path fill="none" stroke="#223B4C" stroke-width="2" stroke-linecap="round" stroke-linejoin="round" stroke-miterlimit="10" d="
		M206.4,192.1c1.1,1.1,2.5,0.8,3.8,0.7"/>
	<path fill="none" stroke="#223B4C" stroke-width="2" stroke-linecap="round" stroke-linejoin="round" stroke-miterlimit="10" d="
		M183.6,185.8c0.5,2.4,0.5,4.8,0.4,7.4c3.9-1.5,7.8-1.6,11.6-1.6c1.6,0,3.4,0.7,5.3,0.5"/>
	<path fill="none" stroke="#223B4C" stroke-width="2" stroke-linecap="round" stroke-linejoin="round" stroke-miterlimit="10" d="
		M176,184.9c-0.8,0-1.5,0.6-1.4,1.1c0.9,5.4-1.5,10.5-1.5,15.8c0,2-0.4,4-0.1,6c0.1,0.7,0.7,0.5,1,0.8"/>
	<path fill="none" stroke="#223B4C" stroke-width="2" stroke-linecap="round" stroke-linejoin="round" stroke-miterlimit="10" d="
		M118.9,167.6c0.5-1.9-0.9-3.9-0.2-5.8c0.6-1.7,0.2-3-1.1-4.2c-4.7,0.9-9.6,1-14,3.2"/>
	<path fill="none" stroke="#223B4C" stroke-width="2" stroke-linecap="round" stroke-linejoin="round" stroke-miterlimit="10" d="
		M210.3,124.1c-7-5-14.2-9.6-22.5-12.1"/>
	<path fill="none" stroke="#223B4C" stroke-width="2" stroke-linecap="round" stroke-linejoin="round" stroke-miterlimit="10" d="
		M120.7,61c-5.2,0.6-10.5,1.1-15.7,1.7c-2.4,0.3-4.8,0.9-7.3,1.3"/>
	<path fill="none" stroke="#223B4C" stroke-width="2" stroke-linecap="round" stroke-linejoin="round" stroke-miterlimit="10" d="
		M38.5,129.5c-1.9,0.7-3.8,1.5-5.8,1.9c-1.8,0.4-2.8,1.9-3.2,3.4c-0.5,2,1.7,2.8,2.8,4c0.4,0.5,0.9,0.9,1.7,0.6
		c0.7-0.4,0.7-1.1,0.8-1.7c0.2-1.7-0.4-3.3-1.4-4.6"/>
	<path fill="none" stroke="#223B4C" stroke-width="2" stroke-linecap="round" stroke-linejoin="round" stroke-miterlimit="10" d="
		M35.9,170.3c1.4,1,1.4,2.7,2.2,3.9c3.8,5.6,9,9.5,14.8,12.7c1.7,0.9,3.4,1.2,5.2,0"/>
	<path fill="none" stroke="#223B4C" stroke-width="2" stroke-linecap="round" stroke-linejoin="round" stroke-miterlimit="10" d="
		M81.5,171.2c0.9,0.7,1.9,0.1,2.9,0.1c3.1-0.2,6.1-0.6,9.5-0.9c-0.3-2.7,0.5-5.3-0.1-8c-0.4-1.8-1.2-2.1-2.6-2
		c-3.1,0.2-6.4-0.5-8.8,2.5"/>
	<path fill="none" stroke="#223B4C" stroke-width="2" stroke-linecap="round" stroke-linejoin="round" stroke-miterlimit="10" d="
		M20.8,105.9c2.6-0.3,3.7-2.2,4.2-4.4c0.3-1.3,0.5-3.1-1.5-3.7c-1.3-0.4-3,0.8-3.5,2.5c-0.5,1.9-0.8,3.8,0.5,5.5"/>
	<path fill="none" stroke="#223B4C" stroke-width="2" stroke-linecap="round" stroke-linejoin="round" stroke-miterlimit="10" d="
		M100.5,112.7c1.3,0.1,2.6,0.4,3.8,0.4c9.9-0.5,19.9,0.2,29.8,0.2"/>
	<path fill="none" stroke="#223B4C" stroke-width="2" stroke-linecap="round" stroke-linejoin="round" stroke-miterlimit="10" d="
		M226.7,195c-0.1,2.2-0.1,4.3-0.3,6.5c-0.5,4-0.7,8-0.5,12"/>
	<path fill="none" stroke="#223B4C" stroke-width="2" stroke-linecap="round" stroke-linejoin="round" stroke-miterlimit="10" d="
		M85.9,194.2c-0.2,3.4-0.2,6.7-0.5,10.1c-0.2,2.1-0.5,4.1,0,6.3c0.2,0.7,0.7,0.5,1,0.8"/>
	<path fill="none" stroke="#223B4C" stroke-width="2" stroke-linecap="round" stroke-linejoin="round" stroke-miterlimit="10" d="
		M183.9,210.8c-0.4-0.3-0.5-0.7-0.4-1.2c1.3-5.1,0-10.2,0.4-15.4c0-0.5,0.5-1.3-0.6-1.2"/>
	<path fill="none" stroke="#223B4C" stroke-width="2" stroke-linecap="round" stroke-linejoin="round" stroke-miterlimit="10" d="
		M101.5,168.5c0.5,0.4,0.5,1.1,1.4,1c2.9-0.3,5.8-0.7,8.7-1c2.6-0.3,5.3-1.1,7.9-0.2"/>
	<path fill="none" stroke="#223B4C" stroke-width="2" stroke-linecap="round" stroke-linejoin="round" stroke-miterlimit="10" d="
		M112.4,125c-3.7-0.9-7.5-0.4-11.3-0.3c-5.4,0.1-10.7,0.1-16.1,0.2"/>
	<path fill="none" stroke="#223B4C" stroke-width="2" stroke-linecap="round" stroke-linejoin="round" stroke-miterlimit="10" d="
		M95.1,126.4c1.4,0.1,2.7,0.3,4.1,0.2c6.2-0.4,12.3-0.9,18.5-0.8"/>
	<path fill="none" stroke="#223B4C" stroke-width="2" stroke-linecap="round" stroke-linejoin="round" stroke-miterlimit="10" d="
		M96.7,142.3c-2.4-0.2-4.2,1.1-5.9,2.6c-0.7,0.7-0.7,1.5-0.5,2.1c0.3,1,1.3,0.9,2.1,0.6c2.5-1,5.9-0.9,6.2-4.7"/>
	<path fill="none" stroke="#223B4C" stroke-width="2" stroke-linecap="round" stroke-linejoin="round" stroke-miterlimit="10" d="
		M223.5,134.1c-4-3.5-8.2-6.8-12.5-10"/>
	<path fill="none" stroke="#223B4C" stroke-width="2" stroke-linecap="round" stroke-linejoin="round" stroke-miterlimit="10" d="
		M105.4,141.8c-1.5-0.6-2.4,0-3.2,1.3c-0.9,1.4-2,2.8-1.6,4.5c0.3,1.2,1.6,0.9,2.5,0.6c0.9-0.3,1.6-1,2.7-0.8"/>
	<path fill="none" stroke="#223B4C" stroke-width="2" stroke-linecap="round" stroke-linejoin="round" stroke-miterlimit="10" d="
		M17.9,122.8c0-0.4-0.1-0.9,0.3-1.2c1.1-0.8,1.1-2,0.5-2.8c-0.6-1.1-1.9-1.9-3.2-1.8c-1.1,0.1-1.7,1-1.8,2.3
		c-0.3,2.7-1.3,5.4-0.4,8.2"/>
	<path fill="none" stroke="#223B4C" stroke-width="2" stroke-linecap="round" stroke-linejoin="round" stroke-miterlimit="10" d="
		M10.9,139.3c-2.2,1.3-3.3,3.3-4.2,5.5c2,2.6,4.6-1.8,6.6,0.6c-0.7,1.3-2.1,1.8-2.8,3"/>
	<path fill="none" stroke="#223B4C" stroke-width="2" stroke-linecap="round" stroke-linejoin="round" stroke-miterlimit="10" d="
		M135.5,167c2,0.6,4.2,0.3,6.2,0.5c3.7,0.4,7.4-1,11.1,0.2c1,0.4,2.1,1.1,3.4,0.4c-0.9-4.2-0.3-8.2,1.5-12.2c-2.7-0.9-5-0.8-7.3,0.2
		"/>
	<path fill="none" stroke="#223B4C" stroke-width="2" stroke-linecap="round" stroke-linejoin="round" stroke-miterlimit="10" d="
		M26.3,117c-1.7,0.7-2.8,1.8-2.8,3.7c0,1.9,0.7,2.3,2.6,1.6c1.5-0.6,2.3-1.8,2.7-3c0.5-1.6-0.5-2.3-2-2.5"/>
	<path fill="none" stroke="#223B4C" stroke-width="2" stroke-linecap="round" stroke-linejoin="round" stroke-miterlimit="10" d="
		M133,163.7c0.9-0.2,1.8-0.4,2.7-0.7c3-1,6.4-0.6,9.3-2.4"/>
	<path fill="none" stroke="#223B4C" stroke-width="2" stroke-linecap="round" stroke-linejoin="round" stroke-miterlimit="10" d="
		M12.9,106.7c-0.6,0.2-1.2,0.5-0.7,1.1c0.6,0.9,1.4,1.7,2.8,1.6c1.2-0.1,1.8-0.9,1.9-1.6c0.2-0.9,0.6-1.9-0.2-2.9
		c-0.9-1-1.6-0.3-2.4-0.1"/>
	<path fill="none" stroke="#223B4C" stroke-width="2" stroke-linecap="round" stroke-linejoin="round" stroke-miterlimit="10" d="
		M2.5,118.3c0.3-2.6,0.9-5.2,0.9-7.9c0-1-0.1-2,0.4-2.9"/>
	<path fill="none" stroke="#223B4C" stroke-width="2" stroke-linecap="round" stroke-linejoin="round" stroke-miterlimit="10" d="
		M140.3,165.7c4-1.1,8.2-1.7,11.7-4c0.2-0.1,0.6,0.2,0.9,0.3"/>
	<path fill="none" stroke="#223B4C" stroke-width="2" stroke-linecap="round" stroke-linejoin="round" stroke-miterlimit="10" d="
		M98.1,129.2c-3.4,0.2-6.7,0.9-10.1,0.7c-0.9-0.1-1.7,0.1-2.4,0.6"/>
	<path fill="none" stroke="#223B4C" stroke-width="2" stroke-linecap="round" stroke-linejoin="round" stroke-miterlimit="10" d="
		M49.8,87.3c0.7,0.8,1.1,0.2,1.5-0.4c0.7-1.1,1-2.5,2.7-2.9c0.5,1,0.2,2,0.2,3c0,2.1,1.1,3,3,2.3c1-0.4,1.8-1,2.7-1.5"/>
	<path fill="none" stroke="#223B4C" stroke-width="2" stroke-linecap="round" stroke-linejoin="round" stroke-miterlimit="10" d="
		M96,188.7c-2.6-0.6-5.1-0.9-7.3,1.1c-0.9,0.9-1.4,1.8-0.9,3.1"/>
	<path fill="none" stroke="#223B4C" stroke-width="2" stroke-linecap="round" stroke-linejoin="round" stroke-miterlimit="10" d="
		M53,194.4c0.3,0.1,0.6,0.2,0.9,0.3c3.8,0.5,7.4-0.5,11.1-0.9"/>
	<path fill="none" stroke="#223B4C" stroke-width="2" stroke-linecap="round" stroke-linejoin="round" stroke-miterlimit="10" d="
		M27.2,98.3c-0.1,0.5,0,1,0.4,1.5c0.5,0.7,0.8,1.6,1.9,1.5c1-0.1,1.3-1.1,1.5-1.8c0.3-1.4,0.5-2.9-0.2-4.3"/>
	<path fill="none" stroke="#223B4C" stroke-width="2" stroke-linecap="round" stroke-linejoin="round" stroke-miterlimit="10" d="
		M93.1,54.7c-2.1-2.6-4.5-3-6.9-1.3c-0.9,0.6-1.1,1.4-1.1,2.4"/>
	<path fill="none" stroke="#223B4C" stroke-width="2" stroke-linecap="round" stroke-linejoin="round" stroke-miterlimit="10" d="
		M85.7,96.4c-0.4,0.6-0.9,0.5-1.5,0.4c-3.3-0.7-6.6-0.4-9.9,0"/>
	<path fill="none" stroke="#223B4C" stroke-width="2" stroke-linecap="round" stroke-linejoin="round" stroke-miterlimit="10" d="
		M42.5,126.6c-1.5,1.6-2,3.6-2.7,5.6c-0.3,1-0.7,2,0.1,2.9c0.9,1,1.9,0.4,2.9,0.1c0.9-0.3,1.9-0.5,2.2-1.6"/>
	<path fill="none" stroke="#223B4C" stroke-width="2" stroke-linecap="round" stroke-linejoin="round" stroke-miterlimit="10" d="
		M90.9,113.2c-3.1,0.2-6.1,0.4-9.2,1"/>
	<path fill="none" stroke="#223B4C" stroke-width="2" stroke-linecap="round" stroke-linejoin="round" stroke-miterlimit="10" d="
		M185.7,193.3c3.4,0.6,6.7,0.8,10.1,0"/>
	<path fill="none" stroke="#223B4C" stroke-width="2" stroke-linecap="round" stroke-linejoin="round" stroke-miterlimit="10" d="
		M49.4,126.2c0.8,1.2,1.7,2.3,2.8,3.1c1.5-1.2,1.1-3.3,2.9-4.1"/>
	<path fill="none" stroke="#223B4C" stroke-width="2" stroke-linecap="round" stroke-linejoin="round" stroke-miterlimit="10" d="
		M168.4,58.7c-2.9,0.3-5.8,0.5-8.7,0.8"/>
	<path fill="none" stroke="#223B4C" stroke-width="2" stroke-linecap="round" stroke-linejoin="round" stroke-miterlimit="10" d="
		M150,60.7c-2.8-0.8-5.5,0.5-8.2,0.8"/>
	<path fill="none" stroke="#223B4C" stroke-width="2" stroke-linecap="round" stroke-linejoin="round" stroke-miterlimit="10" d="
		M54.9,179.3c-0.3,5.3,4.2,7.7,6.7,11.4c0.7,1,2,1.6,2,3"/>
	<path fill="none" stroke="#223B4C" stroke-width="2" stroke-linecap="round" stroke-linejoin="round" stroke-miterlimit="10" d="
		M6.6,102.6c1,2.4,0.8,5.4,3.8,6.7"/>
	<path fill="none" stroke="#223B4C" stroke-width="2" stroke-linecap="round" stroke-linejoin="round" stroke-miterlimit="10" d="
		M151.3,157.1c-1.2,0-2-0.9-3.1-1.1c-2-0.3-4.1-0.6-6,0.6"/>
	<path fill="none" stroke="#223B4C" stroke-width="2" stroke-linecap="round" stroke-linejoin="round" stroke-miterlimit="10" d="
		M48,95.4c-0.4-3.2-2.7-5-5-7"/>
	<path fill="none" stroke="#223B4C" stroke-width="2" stroke-linecap="round" stroke-linejoin="round" stroke-miterlimit="10" d="
		M144.9,159.7c-2.6-3-5.8-2.5-9.1-1.6"/>
	<path fill="none" stroke="#223B4C" stroke-width="2" stroke-linecap="round" stroke-linejoin="round" stroke-miterlimit="10" d="
		M80.2,152.4c3.2,1.7,4.1,1.6,6.1-1c-0.8-1-1.2-2.3-2.5-3.2c-1.5-1-2.7-2.6-2-4.8c0.3-1.1,0.3-2.4,0-3.6"/>
	<path fill="none" stroke="#223B4C" stroke-width="2" stroke-linecap="round" stroke-linejoin="round" stroke-miterlimit="10" d="
		M107.2,94c-2.3-0.2-4.5-0.2-6.7,0.2"/>
	<path fill="none" stroke="#223B4C" stroke-width="2" stroke-linecap="round" stroke-linejoin="round" stroke-miterlimit="10" d="
		M51.7,196.2c0.8-0.9,1.1-2,1.3-3.1c0.7-3.2,1.8-6.2,2.1-9.5"/>
	<path fill="none" stroke="#223B4C" stroke-width="2" stroke-linecap="round" stroke-linejoin="round" stroke-miterlimit="10" d="
		M36.6,112.2c-2.9,2.5-4,5.7-4,9.4"/>
	<path fill="none" stroke="#223B4C" stroke-width="2" stroke-linecap="round" stroke-linejoin="round" stroke-miterlimit="10" d="
		M16.2,128.7c1.7-0.3,2.8-1.5,3.7-2.7c1.2-1.7,0.8-3.3-1-4.4"/>
	<path fill="none" stroke="#223B4C" stroke-width="2" stroke-linecap="round" stroke-linejoin="round" stroke-miterlimit="10" d="
		M47.2,133.8c0.7-2.1,1.3-4.1,2-6.2"/>
	<path fill="none" stroke="#223B4C" stroke-width="2" stroke-linecap="round" stroke-linejoin="round" stroke-miterlimit="10" d="
		M101.3,168c0.1-1.6,0-3.1,0.9-4.5c0.3-0.4,0.2-1.1-0.4-1.4"/>
	<path fill="none" stroke="#223B4C" stroke-width="2" stroke-linecap="round" stroke-linejoin="round" stroke-miterlimit="10" d="
		M35.1,93.1c-1.7,1-1,2.7-1.1,4c0,0.9,0.7,1.4,1.8,0.8c0.7-0.4,1.6-0.6,2.4-0.9"/>
	<path fill="none" stroke="#223B4C" stroke-width="2" stroke-linecap="round" stroke-linejoin="round" stroke-miterlimit="10" d="
		M130.8,159.8c-1.6,1-1.8,2.3-1.4,4c0.2,1,0.7,2,0.4,3.1"/>
	<path fill="none" stroke="#223B4C" stroke-width="2" stroke-linecap="round" stroke-linejoin="round" stroke-miterlimit="10" d="
		M97,146.4c0.7,1.7-0.1,4,1.7,5.4"/>
	<path fill="none" stroke="#223B4C" stroke-width="2" stroke-linecap="round" stroke-linejoin="round" stroke-miterlimit="10" d="
		M34.8,115.2c1.8,0.5,3.4,1.9,5.4,1.7"/>
	<path fill="none" stroke="#223B4C" stroke-width="2" stroke-linecap="round" stroke-linejoin="round" stroke-miterlimit="10" d="
		M25.7,135c-1.3,0.4-1.2,1.7-2.3,2.9c1.2-0.3,1.3,0.9,2.4,0.6c0.6-0.2,1.6,0.4,1.8,1.2c0.3,1-0.4,1.4-1.2,1.6
		c-0.2,0.1-0.2,0.4-0.3,0.7"/>
	<path fill="none" stroke="#223B4C" stroke-width="2" stroke-linecap="round" stroke-linejoin="round" stroke-miterlimit="10" d="
		M190.5,57.8c-1.8-0.3-3.6,0.2-5.3,0.7"/>
	<path fill="none" stroke="#223B4C" stroke-width="2" stroke-linecap="round" stroke-linejoin="round" stroke-miterlimit="10" d="
		M81.1,163.7c-0.6,1.7-0.8,3.5-0.5,5.3"/>
	<path fill="none" stroke="#223B4C" stroke-width="2" stroke-linecap="round" stroke-linejoin="round" stroke-miterlimit="10" d="
		M14.9,140.5c2,1.8,4,1.8,5.3,0c0.9-1.4,1.2-2.9,0.7-4.5"/>
	<path fill="none" stroke="#223B4C" stroke-width="2" stroke-linecap="round" stroke-linejoin="round" stroke-miterlimit="10" d="
		M54.9,123.1c0.4,2.7,1.8,4.7,4,6.2"/>
	<path fill="none" stroke="#223B4C" stroke-width="2" stroke-linecap="round" stroke-linejoin="round" stroke-miterlimit="10" d="
		M107,143.8c0.3,1.9-1.5,3.5-0.8,5.5c0.3,1.1,0.5,2.2,1.1,3.2"/>
	<path fill="none" stroke="#223B4C" stroke-width="2" stroke-linecap="round" stroke-linejoin="round" stroke-miterlimit="10" d="
		M83.1,155.6c0.5-0.6,0.3-1.3,0.3-1.9c-0.1-1.8-0.7-3.5-0.2-5.3"/>
	<path fill="none" stroke="#223B4C" stroke-width="2" stroke-linecap="round" stroke-linejoin="round" stroke-miterlimit="10" d="
		M91.8,113.3c1.6,0.4,3.2-0.5,4.8-0.3"/>
	<path fill="none" stroke="#223B4C" stroke-width="2" stroke-linecap="round" stroke-linejoin="round" stroke-miterlimit="10" d="
		M151.5,161.9c-1.3-1.2-3.3-0.1-4.6-1.2"/>
	<path fill="none" stroke="#223B4C" stroke-width="2" stroke-linecap="round" stroke-linejoin="round" stroke-miterlimit="10" d="
		M20.4,145.8c-0.7-1.5,0.9-3.1-0.3-4.6"/>
	<path fill="none" stroke="#223B4C" stroke-width="2" stroke-linecap="round" stroke-linejoin="round" stroke-miterlimit="10" d="
		M179.9,59.2c-1.3-1.2-2.9-0.2-4.3-0.7"/>
	<path fill="none" stroke="#223B4C" stroke-width="2" stroke-linecap="round" stroke-linejoin="round" stroke-miterlimit="10" d="
		M43.5,89.2c-0.2,1.4-0.9,2.8-0.2,4.3"/>
	<path fill="none" stroke="#223B4C" stroke-width="2" stroke-linecap="round" stroke-linejoin="round" stroke-miterlimit="10" d="
		M50.5,88.1c0.5,1.3-0.2,2.8,0.3,4.1"/>
	<path fill="none" stroke="#223B4C" stroke-width="2" stroke-linecap="round" stroke-linejoin="round" stroke-miterlimit="10" d="
		M110.3,213.1c-1-1.3-1.3-1.3-3.6-0.6"/>
	<path fill="none" stroke="#223B4C" stroke-width="2" stroke-linecap="round" stroke-linejoin="round" stroke-miterlimit="10" d="
		M6.6,110c-1,0-1.1-0.9-1.5-1.5c-0.8-1.1-1.3-2.5-2.7-3"/>
	<path fill="none" stroke="#223B4C" stroke-width="2" stroke-linecap="round" stroke-linejoin="round" stroke-miterlimit="10" d="
		M42.8,93.9c-0.9,0.8-1.1,2-1.6,3"/>
	<path fill="none" stroke="#223B4C" stroke-width="2" stroke-linecap="round" stroke-linejoin="round" stroke-miterlimit="10" d="
		M40.6,131.1c0.3,0.4,0.6,0.8,1.2,0.3c0.5-0.4,0.9-1.1,1.7-0.9"/>
	<path fill="none" stroke="#223B4C" stroke-width="2" stroke-linecap="round" stroke-linejoin="round" stroke-miterlimit="10" d="
		M135.8,159.8c2.5,1.2,4.8-0.4,7.2-0.6"/>
	<path fill="none" stroke="#223B4C" stroke-width="2" stroke-linecap="round" stroke-linejoin="round" stroke-miterlimit="10" d="
		M31.5,113.6c0.6,1,1.6,1.2,2.6,1.6"/>
	<path fill="none" stroke="#223B4C" stroke-width="2" stroke-linecap="round" stroke-linejoin="round" stroke-miterlimit="10" d="
		M143.6,158.2c1.7-1.2,4,0,5.6-1.4"/>
	<path fill="none" stroke="#223B4C" stroke-width="2" stroke-linecap="round" stroke-linejoin="round" stroke-miterlimit="10" d="
		M153.8,166.1c-0.9-0.2-1.6,0.3-2.4,0.6"/>
	<path fill="none" stroke="#223B4C" stroke-width="2" stroke-linecap="round" stroke-linejoin="round" stroke-miterlimit="10" d="
		M145.6,160.2c1.6-0.5,0.5-1.5,0.6-2.4"/>
	<path fill="none" stroke="#223B4C" stroke-width="2" stroke-linecap="round" stroke-linejoin="round" stroke-miterlimit="10" d="
		M7.8,107.9c-0.3,0.9-1.5,1.6-0.9,2.8"/>
	<path fill="none" stroke="#223B4C" stroke-width="2" stroke-linecap="round" stroke-linejoin="round" stroke-miterlimit="10" d="
		M45.5,92.1c-0.5,0.6-1.2,0.8-1.8,1.1c-1.2,0.6-0.5,1.3-0.3,2"/>
	<path fill="none" stroke="#223B4C" stroke-width="2" stroke-linecap="round" stroke-linejoin="round" stroke-miterlimit="10" d="
		M108.1,214.2c0.6-0.3,1.3-0.4,1.7-0.9"/>
	<path fill="none" stroke="#223B4C" stroke-width="2" stroke-linecap="round" stroke-linejoin="round" stroke-miterlimit="10" d="
		M141.8,156.7c-0.3,0.9-0.1,1.8-0.2,2.6"/>
</g>
<g id="XMLID_2_">
	<path fill="none" stroke="#223B4C" stroke-width="2" stroke-linecap="round" stroke-linejoin="round" stroke-miterlimit="10" d="
		M367.9,111c-6,1.2-12.1,1.6-18.2,2.2c-8.1,0.9-16.1,2.5-24.1,3.9c-8.1,1.4-16.1,3.2-24.2,4.7c-4.8,0.9-9.4,2.6-14.2,3.6"/>
	<path fill="none" stroke="#223B4C" stroke-width="2" stroke-linecap="round" stroke-linejoin="round" stroke-miterlimit="10" d="
		M365.5,48c-7.4-1.9-14.7,0-22,1.1c-11.5,1.8-22.8,4.7-34.2,7c-4.2,0.8-8.4,1.5-12.5,2.8c-1.6,0.5-3.5,0.3-5.3-0.1"/>
	<path fill="none" stroke="#223B4C" stroke-width="2" stroke-linecap="round" stroke-linejoin="round" stroke-miterlimit="10" d="
		M357.4,199.5c0.4-2.3-0.6-4.6,0.3-7.3c-6.2,0.8-12,1.3-17.7,2.2c-4.6,0.7-9.2,1.3-13.9,1.8c-6.6,0.8-13.3,1.5-19.9,2.4
		c-2.2,0.3-3.3,2.5-2.5,5.3c0.3,1.1,0,2,0.2,2.9"/>
	<path fill="none" stroke="#223B4C" stroke-width="2" stroke-linecap="round" stroke-linejoin="round" stroke-miterlimit="10" d="
		M367.2,199.7c-8.2-1-16.2,0.5-24.2,1.7c-7.7,1.2-15.3,2.7-22.9,4.1c-4.4,0.8-8.9,1.6-13.2,2.9c-2,0.6-3.9,1.3-5.5,2.7"/>
	<path fill="none" stroke="#223B4C" stroke-width="2" stroke-linecap="round" stroke-linejoin="round" stroke-miterlimit="10" d="
		M289.1,125.3c1,3.8,0.9,7.7,1.1,11.6c0.2,5.4,0.8,10.7,1.7,16c0.4,2.5,0.1,5.1,0.2,7.7c0.6,10.7,2.6,21.3,4.4,31.9
		c0.5,3.3,1.2,6.6,1.3,9.9"/>
	<path fill="none" stroke="#223B4C" stroke-width="2" stroke-linecap="round" stroke-linejoin="round" stroke-miterlimit="10" d="
		M277.8,42.6c-1.1-0.6-1.8-0.5-2.5,0.8c-2.3,4.1-3.4,8.7-4.2,13.2c-1.4,7.1-2.6,14.2-1.8,21.5c0.6,5.4,1.2,10.7,4.2,15.5"/>
	<path fill="none" stroke="#223B4C" stroke-width="2" stroke-linecap="round" stroke-linejoin="round" stroke-miterlimit="10" d="
		M314,68.1c2.3-0.2,4.4-0.8,6.6-1.4c7.6-2.4,15.3-4.5,23.3-5.5c6.3-0.8,12.7-1.5,19-2.4c3.2-0.5,3.2-0.4,3.4-3.4
		c0.2-2.3,0.3-4.6,0.5-6.9"/>
	<path fill="none" stroke="#223B4C" stroke-width="2" stroke-linecap="round" stroke-linejoin="round" stroke-miterlimit="10" d="
		M357.1,173.3c-2.2,0.3-4.2,0.9-6.5,0.3c-2.3-0.6-4.8-0.2-7,0.8c-2.5,1.1-5.2,0.7-7.8,0.8c-3.8,0.2-7.5,0.7-11.1,1.3
		c-5.2,0.8-10.3,2.1-15.6,2.4"/>
	<path fill="none" stroke="#223B4C" stroke-width="2" stroke-linecap="round" stroke-linejoin="round" stroke-miterlimit="10" d="
		M365.4,58.6c1.1,3.2,0.5,6.6,0.7,9.9c0.5,7.4,1.1,14.8,1.8,22.3c0.4,5.3,0.3,10.6,0.1,15.9c-0.3,10.6-1.2,21.3-1.5,31.9
		c-0.2,4.9,0.1,9.8,0,14.7c0,3.5,0.6,7.1-0.3,10.6c-0.3,1.2,0.4,2.3,0.6,3.4c0.9,5,1.2,10,1.7,15.1c0.3,3.1,1,6.2,1.7,9.3
		c0.3,1.4,0.3,2.8,0.6,4.1"/>
	<path fill="none" stroke="#223B4C" stroke-width="2" stroke-linecap="round" stroke-linejoin="round" stroke-miterlimit="10" d="
		M356.4,167.4c0.2,0.2,0.3,0.5,0.7,0.1c0.8-0.9,0.8-2,0.9-3.1c0.5-4.1,0.3-8.2,0.7-12.2c0.1-1.2,0.3-2.4,0.5-3.6
		c0.5-5.2,0.1-10.4,0.1-15.6c0-0.5-0.1-1.2,0-1.7c0.9-4.4-1-7.3-4.9-9"/>
	<path fill="none" stroke="#223B4C" stroke-width="2" stroke-linecap="round" stroke-linejoin="round" stroke-miterlimit="10" d="
		M367.7,106.9c-3.9-1.2-8-1.4-11.8-2.6c-6.2-1.9-12.6-2.6-19-3.7c-3.8-0.7-7.8-0.7-11.4-2.3c-1-0.4-2.2-0.5-2.8,0.1
		c-2,1.9-4.7,2.9-6.9,4.5c-7.1,5.3-14.5,10.1-21.4,15.7c-1.2,1-2.3,2.6-4.2,2.7"/>
	<path fill="none" stroke="#223B4C" stroke-width="2" stroke-linecap="round" stroke-linejoin="round" stroke-miterlimit="10" d="
		M343.9,173.5c-1-0.9-2.4-0.8-3.5-0.7c-3.2,0.4-6.4-0.1-9.7,0.1c-7.1,0.5-14.2,0.7-21.1,2.5c-3.9,1-8,1.4-11.6,3.3
		c-0.9,0.5-2.4,0.1-3.6,0.3"/>
	<path fill="none" stroke="#223B4C" stroke-width="2" stroke-linecap="round" stroke-linejoin="round" stroke-miterlimit="10" d="
		M354,120.6c-0.9,1-2.1,0.2-3.2,0.4c-6.5,1.3-13.1,2.6-19.7,3.2c-5.2,0.5-10.5,0.5-15.6,2.3c-3.2,1.1-6.6,2-9.5,4.1
		c-1.6,1.2-2.7,2.7-3.2,4.6"/>
	<path fill="none" stroke="#223B4C" stroke-width="2" stroke-linecap="round" stroke-linejoin="round" stroke-miterlimit="10" d="
		M362,76.4c-2.9-1-6.2,0.2-9.1-1.5c-0.6-0.3-1.7,0.4-2.6,0.4c-2.4,0-4.9,0.3-7.2,0.7c-2.2,0.4-4.4,1.5-6.7,1.9
		c-9.4,1.7-18.7,3.9-27.9,6.4c-5.7,1.6-11.2,3.5-16.8,5.5c-0.7,0.3-1.4,0.8-2,1.3"/>
	<path fill="none" stroke="#223B4C" stroke-width="2" stroke-linecap="round" stroke-linejoin="round" stroke-miterlimit="10" d="
		M353.3,169.1c-8.9-0.2-17.8-0.5-26.7-0.1c-4.7,0.2-9.6,0.5-14.1,2.2"/>
	<path fill="none" stroke="#223B4C" stroke-width="2" stroke-linecap="round" stroke-linejoin="round" stroke-miterlimit="10" d="
		M342.8,184.7c-1.5,1.3-3.5,0.6-5.1,0.7c-7.8,0.5-15.5,2-23.1,3.8c-3.7,0.9-7.3,1.7-11,2.6c-0.7,0.2-1.3,0.2-1.9-0.2"/>
	<path fill="none" stroke="#223B4C" stroke-width="2" stroke-linecap="round" stroke-linejoin="round" stroke-miterlimit="10" d="
		M311.5,161.8c0-1,0.9-0.9,1.5-1.1c4.9-1.6,9.8-2.9,14.9-3.8c5.3-1,10.7-1.4,16.1-2.2c2.4-0.3,4.9-0.1,7.1-1.3
		c-0.8-1.7,0.3-3.3,0.2-4.9c-0.3-4.7,0.8-9.1,2-13.6c0.8-2.8-1.8-6.8-4.8-6.8c-4,0.1-8-0.1-12.1,0.4c-4.1,0.5-8.1,1-12.1,1.6
		c-3,0.5-6,1.2-9,1.9c-3.6,0.9-5.5,4.4-5.9,7.6c-0.6,4.2-1.1,8.4-1.7,12.6c-0.3,2.5,0.5,4.8,0.3,7.2"/>
	<path fill="none" stroke="#223B4C" stroke-width="2" stroke-linecap="round" stroke-linejoin="round" stroke-miterlimit="10" d="
		M303.2,137.6c0,4.8-0.7,9.6-0.9,14.4c-0.2,4.5-0.6,9.1-0.4,13.7c0.1,2-0.3,4-0.6,6c-0.5,5.2-0.5,10.3,0.4,15.4"/>
	<path fill="none" stroke="#223B4C" stroke-width="2" stroke-linecap="round" stroke-linejoin="round" stroke-miterlimit="10" d="
		M361,76.8c-3.1,2.6-6.8,4.1-10.1,6.2c-4.8,3.1-10.3,5-15.2,7.9c-3.7,2.1-7.7,3.8-10.6,7"/>
	<path fill="none" stroke="#223B4C" stroke-width="2" stroke-linecap="round" stroke-linejoin="round" stroke-miterlimit="10" d="
		M289.6,91.6c0.7,1,1.8,0.9,2.8,1.2c6,1.5,12.2,1.8,18.3,2.8c3.7,0.5,7.3,1.3,10.9,2c0.3,0.1,0.4,0.5,0.7,0.7"/>
	<path fill="none" stroke="#223B4C" stroke-width="2" stroke-linecap="round" stroke-linejoin="round" stroke-miterlimit="10" d="
		M301.8,63.6c-2.1,0.5-5.6,4.6-5.5,6.6c0.1,1.6,1.1,2.2,2.5,2.1c4.1-0.2,8.6-4.1,9.5-8.2c0.2-0.9,0.5-2-0.5-2.7
		c-0.9-0.6-1.9-0.4-2.9,0c-0.8,0.3-1.2,0.9-1.5,1.6"/>
	<path fill="none" stroke="#223B4C" stroke-width="2" stroke-linecap="round" stroke-linejoin="round" stroke-miterlimit="10" d="
		M322.9,77.9c2.9,0.8,5.7-0.4,8.5-0.9c1.1-0.2,1.2-1.8,1.4-2.9c0.2-1,0.1-2.1,0.7-3.3c-2.6-0.2-5.1,0.2-7.4,0.5
		c-3.3,0.5-4.3,2.8-3.4,6.6"/>
	<path fill="none" stroke="#223B4C" stroke-width="2" stroke-linecap="round" stroke-linejoin="round" stroke-miterlimit="10" d="
		M288.9,61.5c-0.4,3.8-1.4,7.4-1.5,11.2c-0.2,6.1-0.4,12.2-0.3,18.3c0,4.2,0.1,8.3,0.3,12.5c0.2,5.4,0.7,10.8,2.2,16
		c0.5,1.7-0.5,3.2,0.1,4.8"/>
	<path fill="none" stroke="#223B4C" stroke-width="2" stroke-linecap="round" stroke-linejoin="round" stroke-miterlimit="10" d="
		M342.7,183.8c-1.9-1-3.9-0.2-5.8-0.1c-8.5,0.5-16.9,2-25.3,3.4"/>
	<path fill="none" stroke="#223B4C" stroke-width="2" stroke-linecap="round" stroke-linejoin="round" stroke-miterlimit="10" d="
		M338.3,163.7c-1.7,0.5-3.1-0.7-4.7-0.9c-2.7-0.3-5.3,0.3-8,0.5c-3,0.2-6,0.5-9.1,1.3c-3,0.7-6.2,1-9.2,1.7"/>
	<path fill="none" stroke="#223B4C" stroke-width="2" stroke-linecap="round" stroke-linejoin="round" stroke-miterlimit="10" d="
		M270.5,27c-0.8,1.9-1.6,3.9-1.5,5.9c0.1,1.4-1.2,3.8,1.4,4.5c3.8-2,5.4-5.3,6.2-9.2c0.3-1.5,1.7-2.8,3.7-2.6"/>
	<path fill="none" stroke="#223B4C" stroke-width="2" stroke-linecap="round" stroke-linejoin="round" stroke-miterlimit="10" d="
		M355.9,73.8c2.8-0.9,2.8-1,2.4-3.7c0-0.2,0-0.3,0-0.5c-0.2-1.6,0.1-3.9-0.9-4.7c-1.1-1-3.3,0-5,0c-2.9,0-5.8,0.4-8.1,2.4"/>
	<path fill="none" stroke="#223B4C" stroke-width="2" stroke-linecap="round" stroke-linejoin="round" stroke-miterlimit="10" d="
		M357.5,24.6c0.8-1.7,1.7-3.4,2.5-5.1c0.3-0.6,0.5-1.1-0.1-1.7c-0.6-0.6-1.3-0.2-1.7-0.1c-2.7,1-4,4.3-3.5,7.4
		c0.3,1.8,0.3,3.7,0.1,5.5"/>
	<path fill="none" stroke="#223B4C" stroke-width="2" stroke-linecap="round" stroke-linejoin="round" stroke-miterlimit="10" d="
		M296.2,83.7c1.1,0.4,2.1,0.7,3.4,0.3c2.5-0.7,4.9-1.5,7.5-1.8c4.1-0.4,5.5-2.7,4.3-6.6c-0.1-0.3-0.4-0.5-0.6-0.8
		c-4.2,1-8.5,1.6-12.7,2.5c-1.6,0.3-3.7,0.3-3.8,2.8"/>
	<path fill="none" stroke="#223B4C" stroke-width="2" stroke-linecap="round" stroke-linejoin="round" stroke-miterlimit="10" d="
		M330.2,143.6c-4.1,2.8-8.4,5.3-12.4,8.2c-2.2,1.6-4.4,3.2-6.6,4.8"/>
	<path fill="none" stroke="#223B4C" stroke-width="2" stroke-linecap="round" stroke-linejoin="round" stroke-miterlimit="10" d="
		M273,101.7c2.3,0.6,4,2.2,6,3.3c1.5,0.9,2.6,0.3,2.7-1.5c0.2-2.3,0.5-4.6,0-7"/>
	<path fill="none" stroke="#223B4C" stroke-width="2" stroke-linecap="round" stroke-linejoin="round" stroke-miterlimit="10" d="
		M348.4,134.1c-5.3,3-10.5,6.1-16,8.7c-0.3,0.1-0.3,0.4-0.3,0.7"/>
	<path fill="none" stroke="#223B4C" stroke-width="2" stroke-linecap="round" stroke-linejoin="round" stroke-miterlimit="10" d="
		M395,32.3c-0.2,1.3-0.1,2.5,0.7,3.7c1.7-0.4,3-1.4,3.8-2.9c0.8-1.5,0.3-3.4-1.2-3.9c-1.5-0.5-1.8,0.9-2.5,1.7
		c-0.3,0.3-0.1,1-0.8,1.1"/>
	<path fill="none" stroke="#223B4C" stroke-width="2" stroke-linecap="round" stroke-linejoin="round" stroke-miterlimit="10" d="
		M345,151.2c-3.1-2.2-6.2-4.5-9.9-5.9c-2.2-0.8-4.5-1.5-6.6-2.7c-4.4-2.5-8.7-5.2-13.2-7.4"/>
	<path fill="none" stroke="#223B4C" stroke-width="2" stroke-linecap="round" stroke-linejoin="round" stroke-miterlimit="10" d="
		M328.2,14c2.3-0.2,4.2-1.8,4.6-3.8c0.2-0.9-0.1-1.6-1-2c-1.1-0.5-1.7,0.1-2.2,0.8c-0.4,0.5-0.8,1.1-0.9,1.8
		c-0.1,0.7-0.4,1.7-1.5,0.9"/>
	<path fill="none" stroke="#223B4C" stroke-width="2" stroke-linecap="round" stroke-linejoin="round" stroke-miterlimit="10" d="
		M310.8,5.8c-2.1,2.1-2.8,4.4-1.9,6.1c0.7,1.5,1.6,1.7,2.8,0.7c1-0.9,2.4-1.6,2.4-3.2"/>
	<path fill="none" stroke="#223B4C" stroke-width="2" stroke-linecap="round" stroke-linejoin="round" stroke-miterlimit="10" d="
		M354.6,185.4c-1.1-0.8-2.2,0.1-3.4-0.1c-2.3-0.3-4.6-0.2-6.6-1.8c-0.3-0.2-1.1,0.2-1.7,0.3c0.1,1.9,1.1,1.4,2.1,0.9"/>
	<path fill="none" stroke="#223B4C" stroke-width="2" stroke-linecap="round" stroke-linejoin="round" stroke-miterlimit="10" d="
		M426.1,32.2c-0.5,0.1-1,0.3-1.5,0.4c-5.2,0.4-6.5,1.1-8.6-4.5c-2.1,1.5-4.3,2.8-4.7,5.7"/>
	<path fill="none" stroke="#223B4C" stroke-width="2" stroke-linecap="round" stroke-linejoin="round" stroke-miterlimit="10" d="
		M392.8,22.8c0.1-1,1.5-1.5,1-2.8c-0.1-0.4,0.6-1.4,1.4-0.6c0.4,0.5,1,0.2,1.5,0.5c0.9,0.6,2.1,0.9,2.6-0.5c0.3-1,0.3-2.2-1.2-2.8
		c-0.7-0.3-1.2-0.5-1.9-0.3"/>
	<path fill="none" stroke="#223B4C" stroke-width="2" stroke-linecap="round" stroke-linejoin="round" stroke-miterlimit="10" d="
		M279.5,91.6c-0.6-0.8-1.2-0.7-1.9-0.2c-1.9,1.4-3.7,2.9-5,4.9c-0.6,0.9-1,2-2.3,2.3"/>
	<path fill="none" stroke="#223B4C" stroke-width="2" stroke-linecap="round" stroke-linejoin="round" stroke-miterlimit="10" d="
		M386.2,20.9c-0.8,0.2-1.8,0.4-2.2,1.1c-0.4,0.6-1.1,1.5-0.4,2.3c0.6,0.7,1.5,1.3,2.6,0.7c1.3-0.7,2.5-1.4,3.3-2.5
		c-0.2-1.8-1.7-2.4-2.4-3.5"/>
	<path fill="none" stroke="#223B4C" stroke-width="2" stroke-linecap="round" stroke-linejoin="round" stroke-miterlimit="10" d="
		M357.3,31.8c0.1-0.6,0.5-1,1-1.1c2.2-0.4,2.8-2,3.2-3.8c-0.5-1.6-1.8-2.1-3.2-2.5"/>
	<path fill="none" stroke="#223B4C" stroke-width="2" stroke-linecap="round" stroke-linejoin="round" stroke-miterlimit="10" d="
		M378.4,22.5c-1,0.7-1.6,1.6-1.4,2.8c0.1,0.7,0.4,1.7,1.5,1.5c1.1-0.2,1.5-1,1.3-2c-0.1-0.7-0.5-1.3-0.8-2"/>
	<path fill="none" stroke="#223B4C" stroke-width="2" stroke-linecap="round" stroke-linejoin="round" stroke-miterlimit="10" d="
		M405.9,27.8c-2.1,0.8-3,2.5-2.8,4.4c0.3,2.6,2.2,2.3,3.9,2.4"/>
	<path fill="none" stroke="#223B4C" stroke-width="2" stroke-linecap="round" stroke-linejoin="round" stroke-miterlimit="10" d="
		M290.6,15.9c-0.5,1-0.4,2.1-0.4,3.1c-0.1,1.1,0.6,1.8,1.5,2c0.8,0.1,1.6-0.1,2.1-1.2c0.9-2.1,0.8-3.1-1.1-4.9"/>
	<path fill="none" stroke="#223B4C" stroke-width="2" stroke-linecap="round" stroke-linejoin="round" stroke-miterlimit="10" d="
		M341.7,34c0-0.9,0.3-1.6,1.3-1.6c1.6,0.1,2.4-1,3-2c0.8-1.4-0.8-2.1-1.6-3c-0.2-0.2-0.3-0.3-0.1-0.6c-0.5-0.5,0.1-0.9,0.3-1.3
		c1.2-2.3,1-2.9-1.2-4c-1.9-0.9-3.1,0-4.2,1.4"/>
	<path fill="none" stroke="#223B4C" stroke-width="2" stroke-linecap="round" stroke-linejoin="round" stroke-miterlimit="10" d="
		M369.5,35.1c0.5,1.3,0.6,2.7,0.7,4.1c0.2,2.3,1.2,2.7,3,1.4"/>
	<path fill="none" stroke="#223B4C" stroke-width="2" stroke-linecap="round" stroke-linejoin="round" stroke-miterlimit="10" d="
		M317.8,2.5c-1.6,0.9-0.6,2.3-0.4,3.3c0.4,2.4,1.3,2.7,3.2,1.2c1-0.8,1.8-1.9,3.3-1.9"/>
	<path fill="none" stroke="#223B4C" stroke-width="2" stroke-linecap="round" stroke-linejoin="round" stroke-miterlimit="10" d="
		M365.2,25.6c-1.3,0.5-1.4,1.3-0.7,2.4c0.4,0.7,0.8,1.3,1.9,0.9c2-0.8,3-2.6,2.7-4.9c2.5-0.7,3,2.9,5.4,2.7c0.7-1.7-0.3-2.9-0.9-4.1
		"/>
	<path fill="none" stroke="#223B4C" stroke-width="2" stroke-linecap="round" stroke-linejoin="round" stroke-miterlimit="10" d="
		M323.1,38.9c-1.5,2.7-2.7,5.5-2,9c3.3-1.5,6.2-3.6,9.6-4.6"/>
	<path fill="none" stroke="#223B4C" stroke-width="2" stroke-linecap="round" stroke-linejoin="round" stroke-miterlimit="10" d="
		M341.8,68.7c-0.1,2.4,0.9,4.7,0.9,7"/>
	<path fill="none" stroke="#223B4C" stroke-width="2" stroke-linecap="round" stroke-linejoin="round" stroke-miterlimit="10" d="
		M274.2,95.8c1.3,1.5,2.6,3,3.7,4.6c0.5,0.7,1.1,0.8,1.9,0.8"/>
	<path fill="none" stroke="#223B4C" stroke-width="2" stroke-linecap="round" stroke-linejoin="round" stroke-miterlimit="10" d="
		M290.9,30.6c1.1,1.2,1.4,2.8,2.1,4.2c0.4,0.8,0.5,1.9,1.5,2.3"/>
	<path fill="none" stroke="#223B4C" stroke-width="2" stroke-linecap="round" stroke-linejoin="round" stroke-miterlimit="10" d="
		M316.8,5c-2.7,1-4.7,2.9-6.4,5.1"/>
	<path fill="none" stroke="#223B4C" stroke-width="2" stroke-linecap="round" stroke-linejoin="round" stroke-miterlimit="10" d="
		M331.1,33.5c-2.4,1.2-3,3.9-4.7,5.7"/>
	<path fill="none" stroke="#223B4C" stroke-width="2" stroke-linecap="round" stroke-linejoin="round" stroke-miterlimit="10" d="
		M285,19.6c-2.1,1.5-1.6,3.8-1.9,5.9"/>
	<path fill="none" stroke="#223B4C" stroke-width="2" stroke-linecap="round" stroke-linejoin="round" stroke-miterlimit="10" d="
		M297.2,27.4c-1.2,0.8-1.8,2.1-2.2,3.4c4.2,1.8,4.2,1.8,1.9,4.2"/>
	<path fill="none" stroke="#223B4C" stroke-width="2" stroke-linecap="round" stroke-linejoin="round" stroke-miterlimit="10" d="
		M391.7,38.6c0.3-2.5-0.9-4.3-3-5.5"/>
	<path fill="none" stroke="#223B4C" stroke-width="2" stroke-linecap="round" stroke-linejoin="round" stroke-miterlimit="10" d="
		M305,15.5c0.5-0.9,1.2-1.7,1.5-2.9c-1.7-0.7-3.4-0.6-5.1-0.2"/>
	<path fill="none" stroke="#223B4C" stroke-width="2" stroke-linecap="round" stroke-linejoin="round" stroke-miterlimit="10" d="
		M296.5,13.7c-0.1,1.9,0.7,3.3,2.4,4.2c2.5-2.3,2.8-4.3,1.2-7.6"/>
	<path fill="none" stroke="#223B4C" stroke-width="2" stroke-linecap="round" stroke-linejoin="round" stroke-miterlimit="10" d="
		M358.2,181.5c0.7-2.4-0.7-4.6-0.2-7"/>
	<path fill="none" stroke="#223B4C" stroke-width="2" stroke-linecap="round" stroke-linejoin="round" stroke-miterlimit="10" d="
		M315.2,17.7c-1.1,1.1-1.3,4.2-0.4,5c0.6,0.5,1.3,0.5,1.9-0.1c0.9-0.9,1.9-1.8,2.8-2.7"/>
	<path fill="none" stroke="#223B4C" stroke-width="2" stroke-linecap="round" stroke-linejoin="round" stroke-miterlimit="10" d="
		M368.4,110.8c1.8-0.3,3.7,0.4,5.6-0.3"/>
	<path fill="none" stroke="#223B4C" stroke-width="2" stroke-linecap="round" stroke-linejoin="round" stroke-miterlimit="10" d="
		M378.9,22.3c-0.8-1.2-1.7-1.5-3.1-1c-1.8,0.7-3.8,1-5.2,2.5"/>
	<path fill="none" stroke="#223B4C" stroke-width="2" stroke-linecap="round" stroke-linejoin="round" stroke-miterlimit="10" d="
		M357,168c0.6,0.8,0.3,1.8,0.3,2.7c-0.2,3.6-0.2,3.6,3.3,3.9"/>
	<path fill="none" stroke="#223B4C" stroke-width="2" stroke-linecap="round" stroke-linejoin="round" stroke-miterlimit="10" d="
		M295.4,84.8c0.8-2.1,0.6-4.1,0.2-6.2"/>
	<path fill="none" stroke="#223B4C" stroke-width="2" stroke-linecap="round" stroke-linejoin="round" stroke-miterlimit="10" d="
		M322.8,15.6c-0.7,0.4-1.3,0.9-2,1.3c-2,0.9-1.3,2-0.2,3.1c1.1,0.3,1.2-1.4,2.3-1.3"/>
	<path fill="none" stroke="#223B4C" stroke-width="2" stroke-linecap="round" stroke-linejoin="round" stroke-miterlimit="10" d="
		M311.6,27.5c-0.2-2,2.2-3.5,1-5.6c-0.9-0.6-1.4,0.3-2.1,0.2"/>
	<path fill="none" stroke="#223B4C" stroke-width="2" stroke-linecap="round" stroke-linejoin="round" stroke-miterlimit="10" d="
		M308,23.9c2.6-0.8,2.6-0.8,1.7-4c-2.5,1.3-2.8,4.3-0.8,7.2"/>
	<path fill="none" stroke="#223B4C" stroke-width="2" stroke-linecap="round" stroke-linejoin="round" stroke-miterlimit="10" d="
		M330.2,43.3c-0.2-1.2-1.3-1.6-2-2.3c-1.1-0.9-2.1-0.2-2.4,1c-0.3,1-0.8,2-0.1,3.1"/>
	<path fill="none" stroke="#223B4C" stroke-width="2" stroke-linecap="round" stroke-linejoin="round" stroke-miterlimit="10" d="
		M321.2,14c-2.4,0.3-1.9,1.9-1.4,3.4"/>
	<path fill="none" stroke="#223B4C" stroke-width="2" stroke-linecap="round" stroke-linejoin="round" stroke-miterlimit="10" d="
		M384,21.2c-0.6-1.3-1.8-0.5-2.3-0.3c-0.7,0.2-1.6,0.6-2.3,1.2"/>
	<path fill="none" stroke="#223B4C" stroke-width="2" stroke-linecap="round" stroke-linejoin="round" stroke-miterlimit="10" d="
		M318.1,163.5c-1.1-1.1-2.5-0.4-3.8-0.5"/>
	<path fill="none" stroke="#223B4C" stroke-width="2" stroke-linecap="round" stroke-linejoin="round" stroke-miterlimit="10" d="
		M377.2,35.6c-1.5,0.2-2.7,0.9-4,1.6"/>
	<path fill="none" stroke="#223B4C" stroke-width="2" stroke-linecap="round" stroke-linejoin="round" stroke-miterlimit="10" d="
		M286,19.4c0.6,1,0.2,2.7,2.2,3.3c0.7-0.7,1.4-1.4,2-2.1"/>
	<path fill="none" stroke="#223B4C" stroke-width="2" stroke-linecap="round" stroke-linejoin="round" stroke-miterlimit="10" d="
		M379.5,37.7c1.7,1.7,3.2,1,4.8-0.1"/>
	<path fill="none" stroke="#223B4C" stroke-width="2" stroke-linecap="round" stroke-linejoin="round" stroke-miterlimit="10" d="
		M408.1,30.7c-1,0.5-2.4,0.2-3,1.5"/>
	<path fill="none" stroke="#223B4C" stroke-width="2" stroke-linecap="round" stroke-linejoin="round" stroke-miterlimit="10" d="
		M304.3,8.7c-0.3,1.1-1.5,1.8-1.4,3"/>
	<path fill="none" stroke="#223B4C" stroke-width="2" stroke-linecap="round" stroke-linejoin="round" stroke-miterlimit="10" d="
		M382.4,33.4c-1.5,0.5-2.1,2.1-2.8,3.2c-0.6,1.1-1.4,1.9-2.2,2.7"/>
	<path fill="none" stroke="#223B4C" stroke-width="2" stroke-linecap="round" stroke-linejoin="round" stroke-miterlimit="10" d="
		M282.4,28.3c0.3-1.4-1.1-1.6-1.8-2.3"/>
	<path fill="none" stroke="#223B4C" stroke-width="2" stroke-linecap="round" stroke-linejoin="round" stroke-miterlimit="10" d="
		M377.1,33c0.5,1.6,0.1,3.4,1.6,4.7"/>
	<path fill="none" stroke="#223B4C" stroke-width="2" stroke-linecap="round" stroke-linejoin="round" stroke-miterlimit="10" d="
		M276.8,26.9c-0.3-0.9-0.8-1.6-0.3-2.7c0.3-0.7-0.2-1.3-1-1.5"/>
	<path fill="none" stroke="#223B4C" stroke-width="2" stroke-linecap="round" stroke-linejoin="round" stroke-miterlimit="10" d="
		M388.2,32.6c0.3,0.9-0.6,1.7-0.5,2.6c0.1,0.5,0.1,0.8,0.7,0.8"/>
	<path fill="none" stroke="#223B4C" stroke-width="2" stroke-linecap="round" stroke-linejoin="round" stroke-miterlimit="10" d="
		M301.7,24.4c1,2.6,3.5,3.7,5.4,5.4"/>
	<path fill="none" stroke="#223B4C" stroke-width="2" stroke-linecap="round" stroke-linejoin="round" stroke-miterlimit="10" d="
		M303.6,28.1c-0.9,0.8-2.4,1.3-1.7,3"/>
	<path fill="none" stroke="#223B4C" stroke-width="2" stroke-linecap="round" stroke-linejoin="round" stroke-miterlimit="10" d="
		M326.8,40.6c-0.1-1.5-1.4-1.9-2.5-2.3"/>
	<path fill="none" stroke="#223B4C" stroke-width="2" stroke-linecap="round" stroke-linejoin="round" stroke-miterlimit="10" d="
		M393.5,20c-0.6-0.2-1.1,0-1.2,0.6c-0.2,0.7,0.2,1.1,0.7,1.5"/>
	<path fill="none" stroke="#223B4C" stroke-width="2" stroke-linecap="round" stroke-linejoin="round" stroke-miterlimit="10" d="
		M380.6,35.6c0.7,1.3,1.8-0.3,2.6,0.4"/>
	<path fill="none" stroke="#223B4C" stroke-width="2" stroke-linecap="round" stroke-linejoin="round" stroke-miterlimit="10" d="
		M286.8,31c-1.2,0.3-1.4,1.3-1.4,2.3c0,2.5,0.9,4.6,3,6.2c2.7-3.5,2-7.3-1.4-8.5"/>
</g>
</svg>
