<?xml version="1.0" encoding="utf-8"?>
<!-- Generator: Adobe Illustrator 18.1.0, SVG Export Plug-In . SVG Version: 6.00 Build 0)  -->
<svg version="1.1" id="Layer_1" xmlns="http://www.w3.org/2000/svg" xmlns:xlink="http://www.w3.org/1999/xlink" x="0px" y="0px"
	 viewBox="0 0 599.2 237.2" enable-background="new 0 0 599.2 237.2" xml:space="preserve">
<path fill="#DEDCD5" d="M162.4,138l-11.4,6.5c0.7,4,0.9,7.7,0.9,11.7s-0.2,7.7-0.9,11.7l11.4,6.8c0.5,0.2,0.9,0.7,0.9,1.4
	c0.2,0.5,0,1.2-0.2,1.6l-22.4,38.7c-0.2,0.5-0.7,0.9-1.4,0.9h-0.5c-0.5,0-0.7,0-1.2-0.2l-11.4-6.8c-6.1,4.9-12.8,8.9-20.3,11.7v13.3
	c0,1.2-0.9,2.1-2.1,2.1H59.4c-1.2,0-2.1-0.9-2.1-2.1v-13.3c-7.5-2.8-14.2-6.8-20.3-11.7L25.6,217c-0.2,0.2-0.7,0.2-1.2,0.2H24
	c-0.7-0.2-1.2-0.5-1.4-0.9L0.2,177.6C0,177.1,0,176.4,0,175.9c0.2-0.5,0.5-0.9,0.9-1.4l11.4-6.8c-0.5-3.7-0.7-7.7-0.7-11.7
	s0.2-7.7,0.9-11.7l-11.4-6.8c-0.9-0.7-1.4-1.9-0.7-3L22.8,96c0.5-0.7,1.2-1.2,1.9-1.2c0.5,0,0.7,0,1.2,0.2l11.4,6.8
	c6.1-4.9,12.8-8.9,20.3-11.7V73.4c0-1.2,0.9-2.1,2.1-2.1h5.6c1.2,0,2.1,0.9,2.1,2.1v28.2c0,0.9-0.7,1.9-1.6,2.1
	c-22.8,7-38.9,28.4-38.9,52.4c0,30.3,24.7,54.8,54.8,54.8c30.3,0,54.8-24.7,54.8-54.8c0-24-16.1-45.4-38.9-52.4
	c-0.9-0.2-1.6-1.2-1.6-2.1v-28c0-1.2,0.9-2.1,2.1-2.1h5.8c1.2,0,2.1,0.9,2.1,2.1v16.8c7.2,2.8,14.2,6.8,20.3,11.7l11.4-6.8
	c0.2-0.2,0.7-0.2,1.2-0.2c0.7,0,1.4,0.5,1.9,1.2l22.4,38.7c0.2,0.5,0.5,1.2,0.2,1.6C163.4,137.3,163.1,137.7,162.4,138z M76.9,66.2
	c-4.2,0-7.7-3.5-7.7-7.7s3.5-7.7,7.7-7.7c4.2,0,7.7,3.5,7.7,7.7S81.1,66.2,76.9,66.2z M89,38.2c0-5.1,4-9.1,9.1-9.1
	c5.1,0,9.1,4,9.1,9.1s-4,9.1-9.1,9.1C93,47.5,89,43.3,89,38.2z M62,13.3C62,6.1,67.8,0,75.3,0c7.2,0,13.3,5.8,13.3,13.3
	c0,7.2-5.8,13.3-13.3,13.3C68,26.6,62,20.5,62,13.3z M83.7,153.1c19.8,14,37.8,6.5,45.4,2.3v3.3c-0.9,25.9-22.6,46.1-48.5,45.2
	c-25.4-0.9-45.2-21.7-45.2-46.8C43.1,151,63.4,138.7,83.7,153.1z M586,117.2l13.2-34.5h-83.7v104.5c0,7.6-6.7,13.7-14.3,13.7h0
	c-7.6,0-14.4-6.1-14.4-13.7v-13.8v-0.2v-0.1h21.4v-34.5h-55.3v44.8c0,26.8,21.5,47,48.2,47h1c26.8,0,48.7-20.2,48.7-47v-10h26.9v-35
	h-26.6v-21.1H586z M304.2,193.8l-1.3,0.5c3.7,5,7.4,9.8,12.1,14.8c2.1-4,2.6-8.7,2.6-14H330c0.3,6.9-1.3,14.2-6.1,20.6
	c2.1,1.3,4.2,2.1,6.6,2.1c1.1,0,2.4-0.3,3.4-0.5l1.6,10.5c-2.4,0.8-5.3,1.3-7.6,1.3c-5.3,0-9.5-1.6-14-4.5
	c-3.7,2.6-9.8,4.7-18.2,4.7c-15.3,0-23.5-8.4-23.5-19c0-9,4.2-14.8,13.4-18.5c-2.4-4-3.2-7.4-3.2-11.1c0-10.5,8.7-17.1,20-17.1
	c8.2,0,16.3,3.4,16.3,13.2C318.9,182.2,316.6,188.6,304.2,193.8L304.2,193.8z M305,217.8c-5.5-5-9.8-10.5-14.5-17.4
	c-2.1,1.6-4,4.2-4,8.7c0,5.8,4,10.3,11.3,10.3C300.7,219.2,303.1,218.9,305,217.8z M298.9,186.7c3.7-1.8,8.4-4,8.4-9.2
	c0-2.9-1.8-5-5.3-5c-3.2,0-5.8,2.1-5.8,5.8C296.3,181.2,297.3,183.8,298.9,186.7z"/>
</svg>
