<svg xmlns="http://www.w3.org/2000/svg" viewBox="0 0 646 101.9" enable-background="new 0 0 646 101.9"><path fill="#EBEAE1" d="M323.3 74.4l-.5.2c1.4 1.9 2.8 3.7 4.6 5.6.8-1.5 1-3.3 1-5.3h4.7c.1 2.6-.5 5.4-2.3 7.8.8.5 1.6.8 2.5.8.4 0 .9-.1 1.3-.2l.6 4c-.9.3-2 .5-2.9.5-2 0-3.6-.6-5.3-1.7-1.4 1-3.7 1.8-6.9 1.8-5.8 0-8.9-3.2-8.9-7.2 0-3.4 1.6-5.6 5.1-7-.9-1.5-1.2-2.8-1.2-4.2 0-4 3.3-6.5 7.6-6.5 3.1 0 6.2 1.3 6.2 5 0 2-.9 4.4-5.6 6.4zm.3 9.1c-2.1-1.9-3.7-4-5.5-6.6-.8.6-1.5 1.6-1.5 3.3 0 2.2 1.5 3.9 4.3 3.9 1.1-.1 2-.2 2.7-.6zm-2.3-11.8c1.4-.7 3.2-1.5 3.2-3.5 0-1.1-.7-1.9-2-1.9-1.2 0-2.2.8-2.2 2.2 0 1.1.4 2.1 1 3.2z"/><path fill="#DEDDD6" d="M89 57.9H78.4c-.9 0-1.7.3-2.3 1-.6.6-1 1.4-1 2.3v28h6.4V78h7.9c3.1 0 5.5-.8 7.1-2.5 1.6-1.8 2.5-4.3 2.5-7.4 0-3.3-.8-5.8-2.5-7.5-1.7-1.8-4.2-2.7-7.5-2.7zm-7.5 5.5h6.6c1.4 0 2.5.4 3.4 1.1.7.9 1.1 2 1.1 3.4 0 1.6-.4 2.8-1.2 3.5-.7.7-1.9 1.1-3.6 1.1h-6.3v-9.1zm30.9 1.6h.5v6.5h-2.1c-1.8 0-3.1.4-3.9 1.3-.8.8-1.3 2.2-1.3 4v12.4h-6.4V77.5c0-2.4.3-4.3 1-6 .7-1.6 1.6-2.9 2.9-3.9 1.2-.9 2.5-1.6 4-2 1.5-.4 3.1-.6 4.8-.6h.5zm8 .9c.6.6.9 1.3.9 2.2v21.1H115V65h3.3c.8 0 1.5.3 2.1.9zm0-7.1c.6.6.9 1.3.9 2.2v1.9H115v-5h3.3c.8 0 1.5.3 2.1.9zM159.3 75v14.2h-3.2c-.9 0-1.7-.3-2.2-.9-.6-.6-.9-1.3-.9-2.2V73.7c0-1.5-.4-2.5-1.3-3.2-.9-.7-1.9-1-3-1s-2.1.3-3 1c-.9.7-1.3 1.7-1.3 3.2v15.5h-6.3V73.7c0-1.5-.4-2.5-1.3-3.2-.9-.7-1.9-1-3-1s-2.1.3-2.9 1c-.8.7-1.3 1.7-1.3 3.2v15.4h-6.4V75c0-4.1 1.1-6.9 3.2-8.3 2.1-1.4 4.5-2.1 7.1-2.3 1.4 0 2.8.2 4.1.5 1.3.3 2.5.9 3.6 1.8.9-.8 2-1.3 3.2-1.7 1.2-.3 2.5-.5 3.9-.6 2.7 0 5.1.7 7.4 2.1 2.5 1.4 3.6 4.3 3.6 8.5zm13-10.5c-3.5 0-6.1 1.1-8.1 3.4-1.9 2.2-2.8 5.2-2.8 9.1 0 4.1 1 7.2 2.9 9.4s4.6 3.4 8.1 3.4c2.8 0 5.2-.7 7.1-2.1 1.9-1.3 3.1-3.3 3.8-5.8h-4.5c-.7 0-1.3.2-1.7.5-.4.3-.6.5-.7.7l-.5.5c-.2.2-.3.3-.5.3-.7.4-1.6.6-2.6.6-1.6 0-2.8-.5-3.5-1.5-.8-.9-1.3-2.3-1.4-4.2h15.7c.1-.1.1-.3.1-.6v-1c0-4-1-7.1-2.9-9.4-2-2.3-4.8-3.3-8.5-3.3zm4.8 10.1h-9.3c.1-1.6.5-2.8 1.4-3.6.8-.8 1.9-1.3 3.3-1.3 1.5 0 2.6.4 3.4 1.3.7.8 1.1 2 1.2 3.6zm14.9 8.8h15.3v5.8h-21.7v-28c0-.9.3-1.7 1-2.3.6-.6 1.4-1 2.3-1h3.2v25.5zm35.4-17.2c-1.7-1.2-4.2-1.7-7.6-1.7-3 0-5.4.7-7 2.1-1.5 1.2-2.3 2.8-2.5 4.6h6.1c.3-.7.8-1.1 1.5-1.4.7-.2 1.4-.4 2.3-.4.8 0 1.6.1 2.6.4.9.3 1.4.9 1.4 1.8 0 1.2-1.3 2-4 2.4-.5.1-1 .1-1.5.2-.4.1-.8.1-1.1.1-2.3.4-4.2 1.1-5.7 2.2s-2.2 2.9-2.2 5.4c0 2.7.8 4.7 2.5 5.9 1.6 1.2 3.5 1.8 5.7 1.8 1.1 0 2.3-.1 3.8-.2 1.4-.2 2.8-.6 4-1.2 1.2-.6 2.3-1.6 3.1-3 .9-1.4 1.3-3.3 1.3-5.7v-8.3c-.1-2.1-.9-3.8-2.7-5zm-3.3 13.1c0 1.7-.5 3-1.5 4s-2.3 1.5-4 1.5c-1 0-1.8-.2-2.4-.7-.5-.5-.8-1.3-.8-2.2 0-.7.2-1.3.6-2 .5-.5 1.3-.9 2.4-1.2l2.1-.5c1.5-.4 2.7-.8 3.5-1.2v2.3zm20.8-14.8c-1.6 0-2.9.3-4 .9-1.3.7-2.2 1.7-2.9 2.8v-7.3c0-.8-.3-1.6-.9-2.2-.6-.6-1.3-.9-2.2-.9h-3.1v20.8c0 4.3 1.2 7.2 3.7 8.7 2.5 1.5 5.2 2.3 8.1 2.3 1.5 0 3-.3 4.6-.8 1.5-.5 2.8-1.3 3.7-2.5 1.8-2.4 2.7-5.4 2.7-9.2 0-3.8-.9-6.8-2.7-9.2-1.8-2.3-4.1-3.4-7-3.4zm-5.6 17.9c-.8-1.2-1.3-3-1.3-5.5 0-2.2.5-3.9 1.4-5.2.9-1.2 2.2-1.8 3.9-1.8 1.6 0 2.8.6 3.7 1.9.9 1.2 1.4 2.9 1.4 5.1 0 2.4-.5 4.3-1.4 5.5-.9 1.3-2.2 1.9-3.9 1.9-1.6.1-2.9-.6-3.8-1.9zm38.3-1c0 2.7-1 4.7-2.9 6.2-1.8 1.3-4.5 2-8.2 2-3.5 0-6-.7-7.7-2.1-1.8-1.4-2.6-3.4-2.6-6.1v-.3h6.2c.1 1.2.5 2.1 1.4 2.7.9.6 2.1.9 3.6.9 1.1 0 2-.2 2.8-.6.7-.4 1.1-1 1.1-1.7 0-1.1-1.3-1.9-3.8-2.5-1.1-.2-1.9-.4-2.5-.5-3.2-.8-5.4-1.7-6.5-2.8-1.2-1.1-1.8-2.5-1.8-4.4 0-2.3.9-4.2 2.6-5.7 1.8-1.4 4.2-2.1 7.1-2.1 3.1 0 5.7.7 7.5 2.1 1.8 1.5 2.7 3.5 2.8 5.9h-3.9c-1.2 0-2-.5-2.6-1.5l-.7-.7c-.7-.5-1.7-.8-3-.8-1.2 0-2.1.2-2.7.5-.5.4-.8.9-.8 1.6 0 1 1.6 1.8 4.7 2.5.4.1.7.2 1 .3.3.1.5.1.8.1 3.1.8 5.2 1.7 6.5 2.7 1 1.1 1.6 2.5 1.6 4.3zM69.7 59.2L64.8 62c.3 1.7.4 3.3.4 5 0 1.7-.1 3.3-.4 5l4.9 2.9c.2.1.4.3.4.6.1.2 0 .5-.1.7l-9.6 16.6c-.1.2-.3.4-.6.4h-.2c-.2 0-.3 0-.5-.1l-4.9-2.9c-2.6 2.1-5.5 3.8-8.7 5v5.7c0 .5-.4.9-.9.9H25.5c-.5 0-.9-.4-.9-.9v-5.7c-3.2-1.2-6.1-2.9-8.7-5L11 93.1c-.1.1-.3.1-.5.1h-.2c-.3-.1-.5-.2-.6-.4L.1 76.2c-.1-.2-.1-.5-.1-.7.1-.2.2-.4.4-.6L5.3 72c-.2-1.6-.3-3.3-.3-5 0-1.7.1-3.3.4-5L.5 59.1c-.4-.3-.6-.8-.3-1.3l9.6-16.6c.2-.3.5-.5.8-.5.2 0 .3 0 .5.1l4.9 2.9c2.6-2.1 5.5-3.8 8.7-5v-7.2c0-.5.4-.9.9-.9H28c.5 0 .9.4.9.9v12.1c0 .4-.3.8-.7.9-9.8 3-16.7 12.2-16.7 22.5 0 13 10.6 23.5 23.5 23.5 13 0 23.5-10.6 23.5-23.5 0-10.3-6.9-19.5-16.7-22.5-.4-.1-.7-.5-.7-.9v-12c0-.5.4-.9.9-.9h2.5c.5 0 .9.4.9.9v7.2c3.1 1.2 6.1 2.9 8.7 5l4.9-2.9c.1-.1.3-.1.5-.1.3 0 .6.2.8.5l9.6 16.6c.1.2.2.5.1.7.1.3 0 .5-.3.6zM33 28.4c-1.8 0-3.3-1.5-3.3-3.3 0-1.8 1.5-3.3 3.3-3.3 1.8 0 3.3 1.5 3.3 3.3 0 1.8-1.5 3.3-3.3 3.3zm5.2-12c0-2.2 1.7-3.9 3.9-3.9s3.9 1.7 3.9 3.9-1.7 3.9-3.9 3.9c-2.2.1-3.9-1.7-3.9-3.9zM26.6 5.7c0-3.1 2.5-5.7 5.7-5.7C35.4 0 38 2.5 38 5.7c0 3.1-2.5 5.7-5.7 5.7-3.1 0-5.7-2.6-5.7-5.7zm9.3 60c8.5 6 16.2 2.8 19.5 1v1.4c-.4 11.1-9.7 19.8-20.8 19.4-10.9-.4-19.4-9.3-19.4-20.1 3.3-2.6 12-7.9 20.7-1.7zm370.7-6.6h5.4v18.2c0 5-2.7 7.5-8 7.5-4.4 0-7.5-1.8-7.7-7.2l5.2-.8c.2 2.1.5 3.5 2.6 3.5 1.6 0 2.5-.7 2.5-3V59.1zm24.3 20.8c0 1 .2 1.4 1.1 1.4.3 0 .6-.1 1.1-.2l.1 3c-.7.4-2.2.7-3.4.7-2.1 0-3.4-.6-3.7-2.3-1.2 1.5-2.9 2.3-5.4 2.3-4.5 0-5.4-3-5.4-4.9 0-5.6 5.8-6.4 10.5-6.4V73c0-2.1-.3-3.3-2.6-3.3-1.8 0-2.4.7-2.8 2.5l-4.5-.9c.6-3.4 2.7-5.5 7.7-5.5 4.9 0 7.3 1.9 7.3 6.4v7.7zm-5.1-3.2h-.8c-2.5.1-4.3.6-4.3 2.4 0 1 .5 2 2.1 2 1.3 0 2.5-.6 3-1.2v-3.2zm6.4-10.5h5.7l3.8 12.7h.1l3.7-12.7h5.4c-2.4 6.8-5 13.9-7.2 20-1.5 4.3-3.2 6-6.9 6-1.4 0-3.2-.4-4-.8l.4-3.8c1 .3 2 .6 2.8.6 1.2 0 2-.6 2.6-2l.6-1.4-7-18.6zm32.6 18.3h-5.4V59.1h16v4.5h-10.6V70h9.7v4.4h-9.7v10.1zM489.1 71c-2.4-.2-4.7.4-6.3 1.6v11.8h-5.3V66.2h4.5l.4 2.9c1.2-1.8 2.9-3.3 5.7-3.3h.9V71zm.9 4.4c0-6.6 4-9.6 8.9-9.6 5.5 0 7.8 3.4 7.8 8.4 0 .6 0 1.8-.1 2.4h-11.1c.1 3 1.4 4.1 3.7 4.1 1.9 0 2.6-1 3-2.6l4.4 1.1c-.7 3.4-3.4 5.6-7.7 5.6-6.7.1-8.9-4.5-8.9-9.4zm11.3-2.1c0-2.6-.9-3.6-2.7-3.6-1.5 0-3 1-3 3.6h5.7zm7.9 2.1c0-6.6 4-9.6 8.9-9.6 5.5 0 7.8 3.4 7.8 8.4 0 .6 0 1.8-.1 2.4h-11.1c.1 3 1.4 4.1 3.7 4.1 1.9 0 2.6-1 3-2.6l4.4 1.1c-.7 3.4-3.4 5.6-7.7 5.6-6.7.1-8.9-4.5-8.9-9.4zm11.3-2.1c0-2.6-.9-3.6-2.7-3.6-1.5 0-3 1-3 3.6h5.7zm22.8-2.6l-4.3 1.4c-.5-1.5-1.2-2.5-3.2-2.5-1.5 0-2.3.6-2.3 1.6 0 1.3 1.5 1.6 3.7 2 3.2.6 6.4 1.3 6.4 5.6 0 4.2-3.5 6.2-8 6.2-4.7 0-7.1-2-7.8-5l4.3-1.4c.4 1.4 1.2 2.8 3.6 2.8 1.8 0 2.6-.6 2.6-1.7 0-1.4-1.3-1.6-3.4-2-3.2-.6-6.6-1.3-6.6-5.8 0-4 3.5-6 7.6-6 4.2-.1 6.5 1.7 7.4 4.8zm15 12.9c-.9.6-3 1.3-5.4 1.3-3.8 0-5.8-1.8-5.8-5.9v-8.9h-2.7v-3.9h2.7v-5.4l5.3-.7v6.1h4.8v3.9h-4.8v8.2c0 1.6.5 2.5 2.1 2.5 1 0 2.3-.4 3-.8l.8 3.6zm1.1-8.2c0-5.8 3-9.6 9.4-9.6s8.8 3.8 8.8 9.2c0 6-2.7 9.8-9.3 9.8-6.6.1-8.9-3.9-8.9-9.4zm12.7-.2c0-4-1.1-5.4-3.4-5.4-2.4 0-3.7 1.5-3.7 5.5 0 4.1 1 5.7 3.6 5.7 2.3 0 3.5-1.5 3.5-5.8zm25.2 9.3H592V72.9c0-2-.8-2.8-2.4-2.8-1.4 0-2.9.8-3.6 1.4v12.9h-5.3V66.2h4.7l.3 1.8c1.3-1.2 3.3-2.2 5.8-2.2 4 0 5.8 2 5.8 6.2v12.5zm3.1-9.1c0-6.6 4-9.6 8.9-9.6 5.5 0 7.8 3.4 7.8 8.4 0 .6 0 1.8-.1 2.4h-11c.1 3 1.4 4.1 3.7 4.1 1.9 0 2.6-1 3-2.6l4.4 1.1c-.7 3.4-3.4 5.6-7.7 5.6-6.8.1-9-4.5-9-9.4zm11.3-2.1c0-2.6-.9-3.6-2.7-3.6-1.5 0-3 1-3 3.6h5.7zm15-1h-2.8V61.5h-4.1v-2.4h11.1v2.4h-4.2v10.8zm16.7 0v-8.4l-3.1 8.4h-2.2l-3-8.4v8.4h-2.5V59.1h3.2l3.6 9.9 3.6-9.9h3v13.2h-2.6zm-256.8-4.2l2.5-4.7h-11.8V79c0 1.1-.9 1.6-2 1.6s-2.6-.5-2.6-1.6v-3.2h3.2v-4.7H368v6.8c0 3.7 3.6 6.7 7.3 6.7h.2c3.7 0 6.8-2.8 6.8-6.7v-2.2h4.3V71h-4.7v-3.1h4.7z"/></svg>